<svg width="887" height="280" viewBox="0 0 887 280" fill="none" xmlns="http://www.w3.org/2000/svg">
<g opacity="0.25">
<path fill-rule="evenodd" clip-rule="evenodd" d="M112.614 139.169C113.505 138.247 114.973 138.222 115.895 139.113C119.431 142.53 124.157 144.608 129.327 144.646C134.531 144.684 139.24 142.646 142.703 139.287C143.623 138.395 145.091 138.417 145.983 139.337C146.875 140.257 146.853 141.725 145.933 142.617C141.629 146.791 135.76 149.333 129.293 149.285H129.293C122.871 149.238 117.019 146.651 112.671 142.449C111.749 141.559 111.724 140.09 112.614 139.169Z" fill="#1C186C"/>
<path fill-rule="evenodd" clip-rule="evenodd" d="M129.32 112.11C131.605 112.136 133.76 113.412 134.992 115.648C136.748 118.837 138.558 122.122 139.929 124.61L142.231 128.786L147.481 138.288L147.488 138.302L148.757 140.635C150.461 143.769 149.799 147.922 146.964 150.157L146.963 150.158C141.962 154.092 135.896 156.394 129.333 156.347L129.33 156.347C123.738 156.3 118.483 154.566 113.938 151.552L113.928 151.546C113.22 151.072 112.437 150.526 111.694 149.889C108.873 147.64 108.173 143.472 109.888 140.349L109.891 140.343L123.611 115.56C123.611 115.56 123.611 115.56 123.611 115.559C124.849 113.319 127.029 112.084 129.32 112.11ZM140.2 129.908C138.169 131.028 138.169 131.028 138.169 131.028L135.866 126.849C134.495 124.361 132.685 121.076 130.928 117.887C130.462 117.041 129.797 116.755 129.267 116.749C128.743 116.743 128.113 117.005 127.672 117.803L113.955 142.581C113.955 142.582 113.954 142.583 113.954 142.583C113.26 143.851 113.636 145.517 114.601 146.273C114.63 146.296 114.659 146.32 114.687 146.344C115.219 146.803 115.824 147.231 116.507 147.689C120.352 150.237 124.735 151.669 129.367 151.708C134.785 151.746 139.843 149.855 144.092 146.513M140.2 129.908L138.169 131.028L143.412 140.519L143.42 140.532L144.681 142.851C145.397 144.168 145.005 145.794 144.092 146.513" fill="#1C186C"/>
<path d="M122.344 136.521C121.875 136.307 121.348 136.307 120.88 136.521C120.626 136.628 120.431 136.778 120.236 136.971C119.885 137.377 119.67 137.912 119.67 138.469C119.67 139.047 119.865 139.56 120.236 139.967C120.607 140.374 121.075 140.588 121.602 140.588C122.129 140.588 122.597 140.374 122.968 139.967C123.339 139.56 123.534 139.025 123.534 138.469C123.534 137.912 123.319 137.377 122.968 136.971C122.793 136.757 122.578 136.607 122.344 136.521Z" fill="#201D67"/>
<path d="M130.033 138.619C129.565 138.405 129.038 138.405 128.569 138.619C128.335 138.726 128.12 138.875 127.925 139.068C127.574 139.475 127.359 140.01 127.359 140.566C127.359 141.144 127.555 141.658 127.925 142.064C128.296 142.471 128.765 142.685 129.291 142.685C129.818 142.685 130.287 142.471 130.658 142.064C131.028 141.658 131.224 141.144 131.224 140.566C131.224 140.01 131.009 139.475 130.658 139.068C130.482 138.875 130.287 138.726 130.033 138.619Z" fill="#201D67"/>
<path d="M138.387 136.949C137.665 136.157 136.377 136.157 135.655 136.949C135.304 137.356 135.089 137.891 135.089 138.447C135.089 139.025 135.284 139.538 135.655 139.945C136.026 140.352 136.494 140.566 137.021 140.566C137.275 140.566 137.528 140.502 137.743 140.395C137.977 140.288 138.192 140.138 138.387 139.945C138.758 139.538 138.953 139.025 138.953 138.447C138.934 137.912 138.719 137.356 138.387 136.949Z" fill="#201D67"/>
<path d="M134.933 129.201C134.835 128.923 134.698 128.709 134.523 128.495C133.801 127.703 132.513 127.703 131.791 128.495C131.615 128.709 131.478 128.923 131.381 129.201C131.283 129.458 131.225 129.737 131.225 129.993C131.225 130.272 131.283 130.55 131.381 130.785C131.478 131.042 131.615 131.277 131.791 131.491C132.161 131.898 132.63 132.112 133.157 132.112C133.41 132.112 133.664 132.048 133.879 131.941C134.113 131.834 134.328 131.684 134.523 131.491C134.894 131.085 135.089 130.571 135.089 129.993C135.089 129.737 135.03 129.458 134.933 129.201Z" fill="#201D67"/>
<path d="M127.224 129.201C127.126 128.945 126.99 128.709 126.814 128.495C126.072 127.703 124.784 127.703 124.082 128.495C123.906 128.709 123.769 128.923 123.672 129.201C123.574 129.458 123.516 129.737 123.516 129.993C123.516 130.571 123.711 131.085 124.082 131.491C124.277 131.684 124.491 131.834 124.726 131.941C124.96 132.048 125.214 132.112 125.467 132.112C125.994 132.112 126.463 131.898 126.833 131.491C127.009 131.277 127.146 131.042 127.243 130.785C127.36 130.528 127.399 130.25 127.399 129.993C127.38 129.737 127.341 129.458 127.224 129.201Z" fill="#201D67"/>
<path d="M127.945 123.06C128.316 123.467 128.784 123.681 129.311 123.681C129.565 123.681 129.818 123.616 130.033 123.509C130.267 123.402 130.482 123.253 130.677 123.06C130.853 122.846 130.989 122.611 131.087 122.354C131.185 122.097 131.243 121.819 131.243 121.562C131.243 120.984 131.028 120.47 130.677 120.064C130.131 119.486 129.291 119.272 128.569 119.614C128.316 119.721 128.12 119.871 127.925 120.064C127.574 120.47 127.359 121.005 127.359 121.562C127.359 121.84 127.418 122.118 127.516 122.354C127.633 122.611 127.769 122.846 127.945 123.06Z" fill="#201D67"/>
<path fill-rule="evenodd" clip-rule="evenodd" d="M595.338 21.651C595.87 22.0663 596.194 22.6925 596.227 23.3663C596.416 27.2548 598.993 30.2231 602.053 30.86C603.245 31.108 604.042 32.2352 603.879 33.4416C603.808 33.9672 603.763 34.4529 603.763 34.9074C603.763 39.5557 606.742 43.2116 610.379 44.0545C611.048 44.2098 611.615 44.6542 611.925 45.2679C612.235 45.8815 612.257 46.6011 611.985 47.2326C609.31 53.4396 603.472 57.901 596.525 57.901C586.909 57.901 579.451 49.4014 579.451 39.4017C579.451 30.4804 585.345 22.8121 593.459 21.2035C594.121 21.0723 594.807 21.2357 595.338 21.651ZM592.047 26.479C587.471 28.4649 584.091 33.4149 584.091 39.4017C584.091 47.2509 589.865 53.2614 596.525 53.2614C600.583 53.2614 604.269 51.0729 606.561 47.5668C602.095 45.3037 599.124 40.4025 599.124 34.9074C599.124 34.8686 599.124 34.8299 599.124 34.7913C595.661 33.3582 593.065 30.2407 592.047 26.479Z" fill="#1C186C"/>
<path d="M590.416 30.5845C589.226 30.5845 588.25 31.6545 588.25 32.96C588.25 34.2655 589.226 35.3356 590.416 35.3356C591.607 35.3356 592.583 34.2655 592.583 32.96C592.583 31.6331 591.607 30.5845 590.416 30.5845Z" fill="#201D67"/>
<path d="M585.635 18.1929C584.445 18.1929 583.469 19.2629 583.469 20.5684C583.469 21.8739 584.445 22.944 585.635 22.944C586.826 22.944 587.801 21.8739 587.801 20.5684C587.782 19.2415 586.826 18.1929 585.635 18.1929Z" fill="#201D67"/>
<path d="M596.72 37.8813C595.529 37.8813 594.554 38.9514 594.554 40.2569C594.554 41.5624 595.529 42.6325 596.72 42.6325C597.91 42.6325 598.886 41.5624 598.886 40.2569C598.886 38.93 597.91 37.8813 596.72 37.8813Z" fill="#201D67"/>
<path fill-rule="evenodd" clip-rule="evenodd" d="M599.826 49.3717C599.826 49.3717 599.826 49.3717 599.826 49.3717L599.81 49.3817L599.759 49.4135C599.715 49.4417 599.649 49.483 599.568 49.5349C599.404 49.6388 599.177 49.7843 598.921 49.9503C598.65 50.1267 598.409 50.2808 598.236 50.3909C598.149 50.446 598.079 50.4903 598.03 50.5211L597.974 50.5567L597.953 50.5698C597.953 50.5698 597.952 50.5702 596.72 48.6044C595.459 46.6576 595.459 46.6576 595.459 46.6576L595.537 46.6069C595.587 46.5749 595.658 46.5292 595.745 46.4733C595.912 46.3658 596.14 46.22 596.389 46.0627C596.658 45.8814 596.904 45.7242 597.084 45.6114C597.178 45.5527 597.255 45.5052 597.31 45.4716L597.375 45.432L597.394 45.4206L597.403 45.4152C597.403 45.4152 597.403 45.4151 598.594 47.4059L597.403 45.4152C598.494 44.7624 599.908 45.11 600.572 46.1946C601.237 47.2793 600.903 48.6964 599.826 49.3717ZM596.72 48.6044L597.953 50.5698C596.873 51.2464 595.449 50.9257 594.764 49.851C594.079 48.7764 594.39 47.3505 595.459 46.6576L596.72 48.6044Z" fill="#1C186C"/>
<path fill-rule="evenodd" clip-rule="evenodd" d="M586.565 40.2654C586.014 41.4218 586.504 42.8063 587.661 43.3578ZM587.661 43.3578L588.659 41.2638ZM588.659 41.2638L589.658 39.1699C589.658 39.1699 589.658 39.1699 588.659 41.2638ZM589.651 44.2995C590.808 44.8509 592.192 44.3603 592.744 43.2039C593.295 42.0474 592.805 40.6629 591.648 40.1115L590.65 42.2055C591.648 40.1115 591.648 40.1116 591.648 40.1115L591.351 39.9703C591.169 39.8839 590.917 39.765 590.641 39.6352C590.371 39.5082 590.125 39.3917 589.946 39.3069L589.658 39.1699M588.659 41.2638C587.661 43.3578 587.661 43.3578 587.661 43.3578ZM587.661 43.3578L587.662 43.3585ZM587.662 43.3585L587.666 43.3604ZM587.666 43.3604L587.682 43.3679ZM587.682 43.3679L587.741 43.3962ZM587.741 43.3962L587.958 43.499ZM587.958 43.499C588.14 43.5854 588.391 43.7043 588.668 43.8342ZM588.668 43.8342C588.938 43.9611 589.184 44.0777 589.363 44.1625ZM589.363 44.1625L589.575 44.263ZM589.575 44.263L589.632 44.2902ZM589.632 44.2902L589.647 44.2972ZM589.647 44.2972L589.65 44.299ZM589.65 44.299L589.651 44.2995Z" fill="#1C186C"/>
<path fill-rule="evenodd" clip-rule="evenodd" d="M578.873 24.5643C579.763 23.6427 581.231 23.617 582.153 24.507C583.074 25.397 583.1 26.8656 582.21 27.7872C582.21 27.7872 582.21 27.7872 582.21 27.7872L581.984 28.0219C581.844 28.1677 581.65 28.3691 581.438 28.5914C581.221 28.8185 581.024 29.0237 580.881 29.1721L580.649 29.4132C579.759 30.3349 578.29 30.361 577.369 29.4711C576.447 28.5812 576.421 27.1126 577.311 26.1909L577.537 25.9562C577.677 25.8104 577.871 25.609 578.083 25.3865C578.3 25.1595 578.497 24.9543 578.64 24.8058L578.873 24.5643C578.873 24.5643 578.873 24.5643 580.541 26.1757L578.873 24.5643Z" fill="#1C186C"/>
<path fill-rule="evenodd" clip-rule="evenodd" d="M586.785 18.3085C581.062 18.3085 576.068 23.463 576.068 30.2849C576.068 33.3719 577.116 36.1553 578.816 38.2697C579.618 39.2684 579.46 40.7285 578.461 41.5311C577.462 42.3338 576.002 42.1749 575.2 41.1762C572.84 38.2399 571.429 34.4317 571.429 30.2849C571.429 21.3126 578.106 13.6689 586.785 13.6689C593.779 13.6689 599.521 18.6713 601.445 25.2934C601.802 26.5237 601.094 27.8108 599.864 28.1681C598.634 28.5255 597.347 27.8178 596.989 26.5875C595.556 21.6527 591.423 18.3085 586.785 18.3085Z" fill="#1C186C"/>
<path fill-rule="evenodd" clip-rule="evenodd" d="M204.053 202.492C205.689 201.977 207.424 201.918 209.09 202.324C210.334 202.627 211.098 203.882 210.794 205.127C210.491 206.371 209.236 207.135 207.992 206.831C207.151 206.627 206.278 206.655 205.447 206.917C204.629 207.175 203.858 207.657 203.213 208.341C203.211 208.345 203.208 208.351 203.205 208.361C203.197 208.381 203.191 208.408 203.191 208.441C203.191 208.473 203.197 208.5 203.205 208.521C203.21 208.535 203.215 208.542 203.216 208.544L205.441 211.07C206.288 212.031 206.195 213.497 205.234 214.344C204.273 215.191 202.807 215.098 201.96 214.137L199.736 211.613C199.736 211.613 199.737 211.613 199.736 211.613C198.958 210.73 198.552 209.59 198.552 208.441C198.552 207.291 198.957 206.151 199.736 205.268C199.748 205.255 199.761 205.241 199.773 205.228C200.95 203.956 202.418 203.007 204.053 202.492Z" fill="#1C186C"/>
<path fill-rule="evenodd" clip-rule="evenodd" d="M222.66 218.543C223.919 218.301 225.135 219.124 225.377 220.382C225.712 222.119 225.647 223.919 225.187 225.624C224.727 227.328 223.882 228.9 222.711 230.19C222.312 230.63 221.827 230.992 221.276 231.244C220.724 231.497 220.122 231.631 219.508 231.631C218.895 231.631 218.293 231.497 217.74 231.244C217.189 230.992 216.703 230.629 216.304 230.188L216.298 230.181L216.298 230.181L214.034 227.656C213.179 226.702 213.259 225.235 214.213 224.38C215.167 223.525 216.633 223.605 217.489 224.559L219.503 226.806C220.049 226.13 220.464 225.316 220.707 224.415C220.983 223.393 221.023 222.307 220.821 221.26C220.579 220.002 221.402 218.786 222.66 218.543Z" fill="#1C186C"/>
<path fill-rule="evenodd" clip-rule="evenodd" d="M196.278 225.767C196.407 225.851 196.538 225.927 196.672 225.997C196.712 226.018 196.752 226.04 196.791 226.063C197.15 226.278 197.529 226.433 197.917 226.529C198.102 226.542 198.287 226.541 198.472 226.526C199.301 226.357 200.101 226.008 200.825 225.492C200.187 225.202 199.51 225.052 198.832 225.046C197.95 225.046 197.071 225.291 196.278 225.767ZM198.711 231.161C198.245 231.191 197.778 231.181 197.313 231.133C197.23 231.124 197.149 231.111 197.068 231.094C196.155 230.898 195.279 230.556 194.471 230.082C193.376 229.502 192.404 228.707 191.6 227.748L191.588 227.734C191.107 227.151 190.865 226.429 190.865 225.712C190.865 224.994 191.107 224.272 191.588 223.689C191.617 223.653 191.648 223.618 191.68 223.584C193.556 221.572 196.123 220.404 198.844 220.406L198.858 220.406C200.849 220.42 202.776 221.063 204.407 222.231C205.072 222.707 205.411 223.47 205.374 224.231C205.402 224.257 205.429 224.284 205.455 224.311C206.179 224.378 206.861 224.784 207.252 225.462C208.266 227.22 208.794 229.24 208.792 231.288M208.792 231.289C208.791 232.682 208.539 234.065 208.045 235.36C207.552 236.655 206.824 237.844 205.894 238.852C205.871 238.877 205.847 238.902 205.823 238.926C205.274 239.471 204.517 239.809 203.691 239.809C202.865 239.809 202.109 239.471 201.559 238.926C201.529 238.895 201.499 238.864 201.47 238.832C200.657 237.929 200.012 236.879 199.56 235.74C199.159 234.885 198.882 233.974 198.735 233.036C198.728 232.992 198.723 232.948 198.718 232.904C198.662 232.324 198.659 231.74 198.711 231.161M203.961 229.625C203.67 230.242 203.455 230.909 203.329 231.611C203.308 231.869 203.308 232.128 203.33 232.386C203.407 232.839 203.539 233.275 203.72 233.681C204.004 232.926 204.152 232.112 204.152 231.286L204.152 231.284C204.153 230.719 204.087 230.162 203.961 229.625Z" fill="#1C186C"/>
<path fill-rule="evenodd" clip-rule="evenodd" d="M220.911 195.777C222.134 195.481 223.401 195.448 224.638 195.68C225.908 195.919 227.11 196.431 228.176 197.175C228.206 197.196 228.235 197.218 228.264 197.24C228.695 197.572 229.083 197.955 229.424 198.379C231.563 200.946 231.82 204.197 231.472 206.995C231.12 209.829 230.103 212.602 229.206 214.647L229.199 214.664C227.249 219.017 224.167 222.683 220.302 225.186C220.272 225.206 220.241 225.225 220.21 225.243C216.461 227.43 212.294 228.659 208.027 228.824C208.008 228.828 207.992 228.831 207.979 228.834L207.975 228.834C207.842 228.861 207.698 228.884 207.557 228.905C207.275 228.945 206.939 228.983 206.608 229.009C206.291 229.033 205.91 229.051 205.561 229.036C205.398 229.029 205.145 229.011 204.876 228.949C204.742 228.918 204.521 228.858 204.275 228.736C204.103 228.65 203.775 228.463 203.482 228.109L201.411 225.777C201.087 225.438 200.945 225.089 200.892 224.95C200.802 224.711 200.764 224.5 200.746 224.379C200.708 224.129 200.704 223.89 200.704 223.73C200.705 223.388 200.735 223.001 200.764 222.679C200.791 222.377 200.825 222.072 200.851 221.833C200.853 221.808 200.856 221.784 200.859 221.76C200.885 221.522 200.891 221.439 200.893 221.439C200.894 221.44 200.894 221.457 200.894 221.484C200.894 221.455 200.894 221.425 200.895 221.395C201.074 216.755 202.214 212.213 204.236 208.11C204.253 208.074 204.272 208.039 204.291 208.004C206.601 203.871 209.958 200.517 213.991 198.365C216.134 197.071 218.476 196.192 220.911 195.777ZM223.781 200.24C223.175 200.126 222.555 200.145 221.954 200.298C221.891 200.314 221.827 200.328 221.762 200.338C219.869 200.652 218.034 201.336 216.344 202.364C216.304 202.388 216.264 202.411 216.223 202.433C213.011 204.134 210.278 206.825 208.371 210.215C206.662 213.701 205.689 217.576 205.532 221.549C205.531 221.627 205.526 221.692 205.523 221.729C205.519 221.788 205.514 221.847 205.509 221.901C205.498 222.009 205.485 222.136 205.471 222.262C205.468 222.286 205.466 222.309 205.463 222.333C205.437 222.577 205.408 222.84 205.385 223.099C205.38 223.151 205.375 223.202 205.371 223.25L206.369 224.373C206.558 224.356 206.743 224.334 206.892 224.313C206.962 224.303 207.015 224.294 207.049 224.288C207.239 224.232 207.437 224.201 207.636 224.195C211.181 224.093 214.668 223.094 217.825 221.263C220.876 219.274 223.365 216.334 224.961 212.776C225.78 210.906 226.596 208.61 226.868 206.423C227.143 204.205 226.817 202.491 225.85 201.338C225.838 201.323 225.826 201.308 225.814 201.293C225.708 201.16 225.592 201.044 225.47 200.945C224.943 200.587 224.369 200.35 223.781 200.24ZM205.748 224.4C205.748 224.4 205.752 224.4 205.758 224.401C205.751 224.4 205.748 224.4 205.748 224.4ZM205.344 223.788C205.344 223.788 205.344 223.787 205.344 223.783Z" fill="#1C186C"/>
<path fill-rule="evenodd" clip-rule="evenodd" d="M213.436 200.092C214.673 199.756 215.947 200.487 216.282 201.724C216.983 204.31 218.241 206.652 219.932 208.556C221.626 210.449 223.7 211.835 225.962 212.615C227.173 213.032 227.817 214.352 227.399 215.564C226.982 216.775 225.662 217.418 224.45 217.001C221.408 215.952 218.671 214.105 216.471 211.646L216.466 211.64L216.466 211.64C214.28 209.18 212.686 206.191 211.804 202.937C211.469 201.701 212.2 200.427 213.436 200.092Z" fill="#1C186C"/>
<path d="M222.476 202.394C222.294 202.187 222.076 202.022 221.834 201.91C221.593 201.797 221.333 201.739 221.071 201.739C220.808 201.739 220.549 201.797 220.307 201.91C220.066 202.022 219.848 202.187 219.666 202.394C219.4 202.697 219.221 203.078 219.152 203.491C219.082 203.904 219.125 204.33 219.275 204.717C219.424 205.103 219.675 205.433 219.994 205.664C220.313 205.896 220.688 206.02 221.071 206.02C221.454 206.02 221.828 205.896 222.148 205.664C222.467 205.433 222.717 205.103 222.867 204.717C223.017 204.33 223.059 203.904 222.99 203.491C222.92 203.078 222.742 202.697 222.476 202.394Z" fill="#201D67"/>
<path fill-rule="evenodd" clip-rule="evenodd" d="M405.453 213.227C406.669 212.824 407.982 213.483 408.385 214.699L414.204 232.259L420.023 214.699C420.426 213.483 421.739 212.824 422.955 213.227C424.171 213.63 424.83 214.942 424.427 216.159L416.406 240.364C416.091 241.313 415.204 241.954 414.204 241.954C413.204 241.954 412.316 241.313 412.002 240.364L403.981 216.159C403.578 214.942 404.237 213.63 405.453 213.227Z" fill="#1C186C"/>
<path fill-rule="evenodd" clip-rule="evenodd" d="M399.842 214.337C399.842 213.056 400.88 212.017 402.162 212.017C402.579 212.017 403.027 212.043 403.445 212.114C403.459 212.116 403.473 212.118 403.487 212.121C404.992 212.403 406.003 213.159 406.577 213.589C406.652 213.645 406.719 213.695 406.779 213.738C407.225 214.057 407.499 214.221 408.192 214.221C408.63 214.221 408.868 214.146 409.027 214.075C409.23 213.986 409.412 213.861 409.811 213.568C409.824 213.559 409.837 213.55 409.85 213.54C410.21 213.275 410.765 212.868 411.477 212.556C412.257 212.215 413.143 212.017 414.203 212.017C415.259 212.017 416.14 212.217 416.915 212.56C417.614 212.869 418.162 213.272 418.517 213.533C418.534 213.545 418.55 213.557 418.566 213.568C418.959 213.857 419.144 213.982 419.349 214.072C419.513 214.144 419.762 214.221 420.214 214.221C420.902 214.221 421.18 214.056 421.632 213.731C421.692 213.688 421.759 213.638 421.833 213.583C422.408 213.152 423.427 212.389 424.937 212.118C424.954 212.115 424.971 212.112 424.988 212.109C425.397 212.045 425.812 212.017 426.245 212.017C427.526 212.017 428.564 213.056 428.564 214.337C428.564 215.618 427.526 216.657 426.245 216.657C426.028 216.657 425.864 216.67 425.731 216.689C425.363 216.759 425.201 216.876 424.623 217.294C424.538 217.356 424.444 217.424 424.338 217.5C423.435 218.149 422.219 218.861 420.214 218.861C419.154 218.861 418.268 218.663 417.488 218.322C416.776 218.01 416.221 217.603 415.861 217.338C415.848 217.328 415.835 217.319 415.822 217.31C415.423 217.017 415.241 216.893 415.038 216.803C414.879 216.733 414.641 216.657 414.203 216.657C413.751 216.657 413.502 216.734 413.338 216.806C413.133 216.896 412.948 217.021 412.555 217.31C412.539 217.321 412.523 217.333 412.506 217.345C412.152 217.606 411.603 218.009 410.904 218.318C410.129 218.661 409.248 218.861 408.192 218.861C406.192 218.861 404.983 218.159 404.077 217.509C403.968 217.431 403.87 217.361 403.782 217.297C403.214 216.885 403.043 216.762 402.655 216.686C402.561 216.671 402.392 216.657 402.162 216.657C400.88 216.657 399.842 215.618 399.842 214.337Z" fill="#1C186C"/>
<path fill-rule="evenodd" clip-rule="evenodd" d="M414.204 202.361C410.139 202.361 406.492 206.039 406.492 211.042C406.492 211.602 406.544 212.164 406.64 212.706C407.266 213.055 407.724 213.457 408.007 213.706C408.068 213.759 408.121 213.806 408.166 213.843C408.536 214.152 408.662 214.222 409.051 214.222C409.44 214.222 409.523 214.175 410.105 213.677L410.122 213.663C410.846 213.043 412.044 212.018 414.204 212.018C416.336 212.018 417.527 213.038 418.238 213.647C418.25 213.657 418.262 213.667 418.273 213.677C418.839 214.161 418.937 214.222 419.356 214.222C419.734 214.222 419.851 214.157 420.226 213.842C420.27 213.805 420.321 213.759 420.38 213.707C420.669 213.452 421.135 213.04 421.779 212.687C421.869 212.165 421.915 211.611 421.915 211.042C421.915 206.039 418.268 202.361 414.204 202.361ZM401.853 211.042C401.853 203.889 407.183 197.722 414.204 197.722C421.224 197.722 426.555 203.889 426.555 211.042C426.555 212.397 426.373 213.793 425.959 215.102C425.706 215.902 425.04 216.502 424.219 216.673C424.014 216.716 423.974 216.75 423.39 217.242C423.336 217.288 423.278 217.337 423.214 217.391C422.432 218.049 421.281 218.862 419.356 218.862C417.196 218.862 415.998 217.837 415.274 217.217L415.257 217.202C414.675 216.704 414.592 216.657 414.204 216.657C413.785 216.657 413.687 216.718 413.121 217.202C413.109 217.212 413.097 217.223 413.085 217.233C412.375 217.841 411.184 218.862 409.051 218.862C407.138 218.862 405.985 218.066 405.194 217.406C405.102 217.329 405.021 217.261 404.948 217.2C404.416 216.754 404.366 216.713 404.158 216.667C403.336 216.484 402.677 215.871 402.437 215.064C402.062 213.804 401.853 212.425 401.853 211.042Z" fill="#1C186C"/>
<path fill-rule="evenodd" clip-rule="evenodd" d="M401.853 217.634C401.853 216.353 402.891 215.314 404.172 215.314H424.235C425.516 215.314 426.555 216.353 426.555 217.634C426.555 218.915 425.516 219.954 424.235 219.954H404.172C402.891 219.954 401.853 218.915 401.853 217.634Z" fill="#1C186C"/>
<path fill-rule="evenodd" clip-rule="evenodd" d="M595.921 218.551C595.921 217.27 596.96 216.231 598.241 216.231H612.683C613.964 216.231 615.002 217.27 615.002 218.551V220.82C615.002 222.101 613.964 223.14 612.683 223.14H598.241C596.96 223.14 595.921 222.101 595.921 220.82V218.551Z" fill="#1C186C"/>
<path fill-rule="evenodd" clip-rule="evenodd" d="M589.743 202.766C591.605 210.64 598.053 216.211 605.462 216.211C612.871 216.211 619.32 210.64 621.182 202.766H589.743ZM585.209 203.757C584.58 201.072 586.474 198.126 589.498 198.126H621.426C624.449 198.126 626.306 201.084 625.721 203.729L625.715 203.755C623.459 213.439 615.363 220.85 605.462 220.85C595.562 220.85 587.466 213.44 585.209 203.757Z" fill="#1C186C"/>
<path fill-rule="evenodd" clip-rule="evenodd" d="M597.674 193.734C596.878 193.734 595.876 194.512 595.876 195.93C595.876 197.349 596.878 198.126 597.674 198.126C598.47 198.126 599.472 197.349 599.472 195.93C599.472 194.511 598.47 193.734 597.674 193.734ZM591.236 195.93C591.236 192.361 593.922 189.095 597.674 189.095C601.426 189.095 604.112 192.361 604.112 195.93C604.112 199.499 601.426 202.766 597.674 202.766C593.922 202.766 591.236 199.499 591.236 195.93Z" fill="#1C186C"/>
<path fill-rule="evenodd" clip-rule="evenodd" d="M613.248 193.393C612.452 193.393 611.45 194.17 611.45 195.589C611.45 197.008 612.452 197.785 613.248 197.785C614.045 197.785 615.046 197.008 615.046 195.589C615.046 194.17 614.045 193.393 613.248 193.393ZM606.811 195.589C606.811 192.02 609.496 188.753 613.248 188.753C617 188.753 619.686 192.02 619.686 195.589C619.686 199.158 617 202.424 613.248 202.424C609.496 202.424 606.811 199.158 606.811 195.589Z" fill="#1C186C"/>
<path fill-rule="evenodd" clip-rule="evenodd" d="M605.626 195.88C605.458 196.065 605.323 196.357 605.323 196.723C605.323 197.09 605.458 197.382 605.626 197.566C605.792 197.747 605.963 197.806 606.106 197.806C606.25 197.806 606.421 197.747 606.587 197.566C606.755 197.381 606.89 197.09 606.89 196.723C606.89 196.357 606.755 196.065 606.587 195.88C606.421 195.699 606.25 195.64 606.106 195.64C605.963 195.64 605.792 195.699 605.626 195.88ZM600.684 196.723C600.684 193.769 602.915 191 606.106 191C609.298 191 611.529 193.769 611.529 196.723C611.529 199.678 609.298 202.446 606.106 202.446C602.915 202.446 600.684 199.678 600.684 196.723Z" fill="#1C186C"/>
<path fill-rule="evenodd" clip-rule="evenodd" d="M587.389 182.895C588.335 182.032 589.802 182.1 590.666 183.046L597.145 190.152C598.008 191.098 597.941 192.565 596.994 193.429C596.047 194.292 594.58 194.224 593.717 193.278L587.238 186.172C586.374 185.226 586.442 183.759 587.389 182.895Z" fill="#1C186C"/>
<path fill-rule="evenodd" clip-rule="evenodd" d="M587.686 207.189C587.686 205.908 588.724 204.869 590.005 204.869H620.919C622.2 204.869 623.239 205.908 623.239 207.189C623.239 208.47 622.2 209.509 620.919 209.509H590.005C588.724 209.509 587.686 208.47 587.686 207.189Z" fill="#1C186C"/>
<path fill-rule="evenodd" clip-rule="evenodd" d="M491.9 112.83C491.9 111.549 492.939 110.51 494.22 110.51H529.349C530.63 110.51 531.669 111.549 531.669 112.83C531.669 117.458 528.212 121.57 523.494 121.57H500.075C495.357 121.57 491.9 117.458 491.9 112.83ZM497.153 115.15C497.823 116.271 498.952 116.931 500.075 116.931H523.494C524.618 116.931 525.746 116.271 526.416 115.15H497.153Z" fill="#1C186C"/>
<path fill-rule="evenodd" clip-rule="evenodd" d="M493.853 110.69C493.853 100.155 501.681 91.2485 511.785 91.2485C521.889 91.2485 529.718 100.155 529.718 110.69V112.83C529.718 114.111 528.679 115.149 527.398 115.149H496.172C494.891 115.149 493.853 114.111 493.853 112.83V110.69ZM498.493 110.51H525.077C524.99 102.214 518.882 95.8881 511.785 95.8881C504.688 95.8881 498.58 102.214 498.493 110.51Z" fill="#1C186C"/>
<path d="M511.785 95.1736C513.672 95.1736 515.201 93.4968 515.201 91.4284C515.201 89.3599 513.672 87.6831 511.785 87.6831C509.899 87.6831 508.37 89.3599 508.37 91.4284C508.37 93.4968 509.899 95.1736 511.785 95.1736Z" fill="#201D67"/>
<path fill-rule="evenodd" clip-rule="evenodd" d="M386.942 82.814C387.028 81.5357 388.134 80.5692 389.412 80.6552C395.462 81.0624 401.418 83.9552 406.067 89.1229L406.067 89.123C410.674 94.2443 413.187 100.744 413.567 107.232C413.642 108.511 412.666 109.608 411.387 109.683C410.108 109.758 409.01 108.782 408.935 107.503C408.613 102.006 406.481 96.5211 402.618 92.2258M386.942 82.814C386.856 84.0923 387.822 85.1983 389.101 85.2843ZM389.101 85.2843C393.862 85.6048 398.718 87.8911 402.618 92.2257Z" fill="#1C186C"/>
<path fill-rule="evenodd" clip-rule="evenodd" d="M392.904 78.8322C391.937 78.6584 390.649 79.3325 390.29 80.9477L390.287 80.9597L389.664 83.6944L389.663 83.6991L387.13 94.9161L386.996 95.5441L386.991 95.5691L385.488 102.268L385.481 102.297L385.368 102.773L383.654 110.461L383.653 110.467C383.406 111.563 383.728 112.508 384.247 113.091C384.752 113.656 385.412 113.875 386.117 113.687C386.118 113.687 386.117 113.687 386.117 113.687L410.474 107.16L410.475 107.159L412.871 106.518C412.871 106.518 412.872 106.518 412.872 106.518C413.961 106.223 414.975 104.846 414.731 103.189C413.833 97.1011 411.37 91.4421 407.343 86.9861L407.34 86.9824C403.292 82.485 398.251 79.7899 392.905 78.8324L392.904 78.8322ZM393.723 74.2655C389.931 73.5846 386.577 76.2881 385.762 79.9339L385.139 82.6678L382.601 93.9083L382.595 93.9364L382.461 94.566L380.964 101.238L380.851 101.715L380.843 101.747L379.127 109.447C379.127 109.448 379.126 109.449 379.126 109.45C378.555 111.99 379.258 114.468 380.787 116.181C382.331 117.91 384.744 118.857 387.318 118.169L411.673 111.641L411.675 111.641L414.078 110.998C417.751 110.008 419.858 106.164 419.322 102.514C418.307 95.6336 415.501 89.0939 410.787 83.877C406.052 78.6168 400.087 75.4057 393.725 74.2658" fill="#1C186C"/>
<path fill-rule="evenodd" clip-rule="evenodd" d="M398.275 97.543C398.1 97.738 397.957 98.0494 397.957 98.4421C397.957 98.8348 398.1 99.1462 398.275 99.3412C398.448 99.5322 398.622 99.5894 398.76 99.5894C398.898 99.5894 399.072 99.5322 399.244 99.3412C399.42 99.1462 399.563 98.8348 399.563 98.4421C399.563 98.0494 399.42 97.738 399.244 97.543C399.072 97.352 398.898 97.2948 398.76 97.2948C398.622 97.2948 398.448 97.352 398.275 97.543ZM393.317 98.4421C393.317 95.4804 395.532 92.6553 398.76 92.6553C401.988 92.6553 404.202 95.4804 404.202 98.4421C404.202 101.404 401.988 104.229 398.76 104.229C395.532 104.229 393.317 101.404 393.317 98.4421Z" fill="#1C186C"/>
<path fill-rule="evenodd" clip-rule="evenodd" d="M383.967 91.0067C384.503 90.6788 385.15 90.5829 385.759 90.741C386.899 91.037 388.007 91.6417 388.92 92.6431L388.929 92.6534L388.929 92.6534C391.317 95.3043 391.333 99.5144 388.927 102.161C387.257 104.019 384.751 104.698 382.469 103.911C381.352 103.527 380.703 102.365 380.96 101.212L382.912 92.4803C383.049 91.8664 383.43 91.3346 383.967 91.0067Z" fill="#1C186C"/>
<path fill-rule="evenodd" clip-rule="evenodd" d="M392.252 110.776C391.943 111.125 391.788 111.7 391.923 112.271C392.217 113.518 391.444 114.767 390.197 115.061C388.95 115.355 387.701 114.583 387.407 113.336C386.956 111.425 387.385 109.263 388.792 107.685L388.798 107.679L388.798 107.679C391.025 105.2 394.736 105.198 396.966 107.672C397.676 108.453 398.15 109.399 398.371 110.4C398.646 111.651 397.855 112.889 396.604 113.164C395.352 113.439 394.115 112.648 393.839 111.397C393.787 111.159 393.678 110.952 393.532 110.792L393.521 110.78C393.294 110.527 393.061 110.457 392.885 110.457C392.709 110.457 392.478 110.527 392.252 110.776Z" fill="#1C186C"/>
<path fill-rule="evenodd" clip-rule="evenodd" d="M309.348 113.213C312.395 109.871 317.418 109.871 320.465 113.213C323.4 116.431 323.4 121.553 320.465 124.771L300.481 146.686C297.434 150.028 292.411 150.028 289.363 146.686C286.428 143.468 286.428 138.346 289.363 135.128L309.348 113.213ZM317.037 116.339C315.83 115.015 313.983 115.015 312.776 116.339L292.791 138.254C291.472 139.701 291.472 142.113 292.791 143.56C293.999 144.884 295.845 144.884 297.053 143.56L317.037 121.645C318.357 120.198 318.357 117.786 317.037 116.339Z" fill="#1C186C"/>
<path fill-rule="evenodd" clip-rule="evenodd" d="M315.298 117.642C316.245 118.505 316.313 119.972 315.449 120.919C314.56 121.894 314.306 122.485 313.986 123.228L313.973 123.259C313.557 124.225 313.065 125.353 311.663 126.89C310.254 128.435 309.202 128.992 308.293 129.463C308.278 129.471 308.262 129.479 308.247 129.487C307.608 129.817 307.092 130.084 306.221 131.038C305.332 132.023 305.075 132.618 304.756 133.357L304.741 133.392C304.324 134.358 303.831 135.479 302.432 137.013L302.425 137.02L302.425 137.02C301.009 138.56 299.962 139.115 299.057 139.585C299.043 139.592 299.028 139.6 299.014 139.607C298.377 139.937 297.863 140.204 296.987 141.165C296.124 142.112 294.656 142.179 293.71 141.316C292.763 140.453 292.696 138.985 293.559 138.039C294.966 136.496 296.01 135.939 296.919 135.467C296.935 135.459 296.952 135.45 296.968 135.442C297.606 135.111 298.125 134.841 299.007 133.883C299.897 132.907 300.151 132.319 300.469 131.581L300.481 131.553C300.896 130.591 301.387 129.467 302.783 127.923L302.79 127.916L302.79 127.916C304.199 126.37 305.251 125.814 306.16 125.343C306.175 125.335 306.191 125.327 306.206 125.319C306.846 124.988 307.362 124.721 308.235 123.764C309.124 122.789 309.379 122.198 309.698 121.455L309.711 121.424C310.127 120.458 310.62 119.33 312.021 117.793C312.884 116.846 314.352 116.779 315.298 117.642Z" fill="#1C186C"/>
<path fill-rule="evenodd" clip-rule="evenodd" d="M302.435 110.691C305.895 106.871 311.633 106.874 315.09 110.722C315.886 111.609 315.881 112.955 315.078 113.835L290.487 140.801C290.048 141.283 289.426 141.558 288.773 141.558C288.121 141.558 287.499 141.283 287.059 140.801C283.695 137.112 283.695 131.241 287.059 127.552L302.432 110.694C302.433 110.693 302.434 110.692 302.435 110.691ZM309.878 112.651C308.504 112.203 306.974 112.59 305.872 113.807L305.866 113.814L305.866 113.814L290.487 130.678C289.367 131.907 288.964 133.645 289.279 135.241L309.878 112.651Z" fill="#1C186C"/>
<path fill-rule="evenodd" clip-rule="evenodd" d="M321.054 118.341C321.706 118.341 322.328 118.616 322.768 119.098C326.132 122.787 326.132 128.658 322.768 132.347L307.395 149.205C307.394 149.206 307.393 149.207 307.392 149.209C303.932 153.028 298.194 153.025 294.737 149.177C293.941 148.29 293.946 146.944 294.749 146.064L319.34 119.098C319.779 118.616 320.401 118.341 321.054 118.341ZM320.548 124.659L299.949 147.248C301.323 147.697 302.853 147.309 303.955 146.092L303.961 146.085L303.961 146.085L319.34 129.221C320.46 127.992 320.863 126.254 320.548 124.659Z" fill="#1C186C"/>
<path fill-rule="evenodd" clip-rule="evenodd" d="M179.213 55.2168C179.213 53.9356 180.251 52.897 181.533 52.897H213.617C214.898 52.897 215.937 53.9356 215.937 55.2168V59.3258C215.937 64.2105 212.285 68.5369 207.333 68.5369H187.817C182.865 68.5369 179.213 64.2105 179.213 59.3258V55.2168ZM183.852 57.5365V59.3258C183.852 62.0601 185.821 63.8973 187.817 63.8973H207.333C209.329 63.8973 211.297 62.0601 211.297 59.3258V57.5365H183.852Z" fill="#1C186C"/>
<path fill-rule="evenodd" clip-rule="evenodd" d="M177.203 51.9203C177.203 49.026 179.392 46.3047 182.528 46.3047H212.622C215.759 46.3047 217.948 49.026 217.948 51.9203C217.948 54.8146 215.759 57.5359 212.622 57.5359H182.528C179.392 57.5359 177.203 54.8146 177.203 51.9203ZM182.118 51.1533C181.966 51.3193 181.843 51.5846 181.843 51.9203C181.843 52.256 181.966 52.5213 182.118 52.6873C182.266 52.8499 182.414 52.8963 182.528 52.8963H212.622C212.737 52.8963 212.885 52.8499 213.033 52.6873C213.184 52.5213 213.308 52.256 213.308 51.9203C213.308 51.5846 213.184 51.3193 213.033 51.1533C212.885 50.9907 212.737 50.9443 212.622 50.9443H182.528C182.414 50.9443 182.266 50.9907 182.118 51.1533Z" fill="#1C186C"/>
<path fill-rule="evenodd" clip-rule="evenodd" d="M179.213 47.4904C179.213 37.3196 186.768 28.7129 196.541 28.7129H198.609C208.382 28.7129 215.937 37.3196 215.937 47.4904V48.6247C215.937 49.9059 214.898 50.9445 213.617 50.9445H181.533C180.251 50.9445 179.213 49.9059 179.213 48.6247V47.4904ZM183.896 46.3049H211.254C210.709 38.8749 205.086 33.3525 198.609 33.3525H196.541C190.064 33.3525 184.441 38.8749 183.896 46.3049Z" fill="#1C186C"/>
<path fill-rule="evenodd" clip-rule="evenodd" d="M179.819 53.9816C180.797 53.1537 182.26 53.2751 183.088 54.2529C183.295 54.4969 183.495 54.7665 183.641 54.962C183.67 55.0015 183.697 55.038 183.722 55.0706C183.87 55.2688 183.969 55.3925 184.05 55.4807C184.131 55.3925 184.23 55.2688 184.379 55.0706C184.403 55.038 184.43 55.0015 184.46 54.962C184.605 54.7665 184.805 54.4969 185.012 54.2529C185.84 53.2751 187.304 53.1537 188.281 53.9816C189.259 54.8095 189.381 56.2733 188.553 57.251C188.449 57.373 188.357 57.497 188.219 57.6826C188.18 57.7344 188.138 57.7911 188.091 57.8538C187.904 58.1033 187.641 58.4469 187.32 58.7738C186.615 59.4917 185.561 60.1905 184.05 60.1905C182.539 60.1905 181.485 59.4917 180.78 58.7738C180.459 58.4469 180.197 58.1033 180.01 57.8538C179.962 57.7911 179.92 57.7344 179.882 57.6826C179.743 57.497 179.651 57.373 179.548 57.251C178.72 56.2733 178.841 54.8095 179.819 53.9816Z" fill="#1C186C"/>
<path fill-rule="evenodd" clip-rule="evenodd" d="M198.144 53.9816C199.122 53.1537 200.586 53.2751 201.413 54.2529C201.62 54.4969 201.82 54.7665 201.966 54.962C201.995 55.0015 202.022 55.038 202.047 55.0706C202.201 55.2759 202.301 55.4013 202.384 55.4901C202.467 55.4021 202.568 55.2769 202.724 55.0691C202.749 55.0358 202.777 54.9984 202.807 54.9578C202.952 54.7634 203.152 54.495 203.357 54.2529C204.185 53.2751 205.648 53.1537 206.626 53.9816C207.604 54.8095 207.725 56.2733 206.897 57.251C206.795 57.372 206.704 57.4938 206.568 57.676C206.528 57.73 206.484 57.7892 206.434 57.8553C206.246 58.106 205.982 58.4506 205.658 58.7787C204.944 59.501 203.886 60.1905 202.375 60.1905C200.864 60.1905 199.81 59.4917 199.105 58.7738C198.784 58.4469 198.522 58.1033 198.335 57.8538C198.288 57.7911 198.245 57.7344 198.207 57.6826C198.068 57.497 197.976 57.373 197.873 57.251C197.045 56.2733 197.166 54.8095 198.144 53.9816Z" fill="#1C186C"/>
<path fill-rule="evenodd" clip-rule="evenodd" d="M207.335 53.9601C208.313 53.1322 209.777 53.2537 210.605 54.2314C210.811 54.4755 211.012 54.745 211.157 54.9405C211.187 54.98 211.214 55.0165 211.238 55.0491C211.412 55.2812 211.518 55.4111 211.607 55.5015C211.618 55.5127 211.628 55.5223 211.636 55.5305C212.885 55.5672 213.887 56.5913 213.887 57.8492C213.887 59.1304 212.848 60.169 211.567 60.169C210.056 60.169 209.002 59.4702 208.297 58.7523C207.976 58.4254 207.713 58.0818 207.526 57.8324C207.479 57.7696 207.437 57.713 207.398 57.6611C207.26 57.4755 207.167 57.3515 207.064 57.2296C206.236 56.2518 206.358 54.788 207.335 53.9601Z" fill="#1C186C"/>
<path fill-rule="evenodd" clip-rule="evenodd" d="M188.991 53.9816C189.968 53.1537 191.432 53.2751 192.26 54.2529C192.467 54.4969 192.667 54.7665 192.812 54.962C192.842 55.0015 192.869 55.038 192.893 55.0706C193.042 55.2688 193.141 55.3925 193.222 55.4807C193.303 55.3925 193.402 55.2688 193.551 55.0706C193.575 55.038 193.602 55.0015 193.632 54.962C193.777 54.7665 193.977 54.4969 194.184 54.2529C195.012 53.2751 196.476 53.1537 197.453 53.9816C198.431 54.8095 198.553 56.2733 197.725 57.251C197.621 57.373 197.529 57.497 197.391 57.6826C197.352 57.7344 197.31 57.7911 197.263 57.8538C197.076 58.1033 196.813 58.4469 196.492 58.7738C195.787 59.4917 194.733 60.1905 193.222 60.1905C191.711 60.1905 190.657 59.4917 189.952 58.7738C189.631 58.4469 189.368 58.1033 189.181 57.8538C189.134 57.7911 189.092 57.7344 189.053 57.6826C188.915 57.497 188.823 57.373 188.719 57.251C187.891 56.2733 188.013 54.8095 188.991 53.9816Z" fill="#1C186C"/>
<path fill-rule="evenodd" clip-rule="evenodd" d="M669.852 94.2259C670.742 93.3045 672.211 93.2794 673.132 94.1697C676.668 97.5867 681.394 99.665 686.565 99.7032C691.768 99.7413 696.477 97.7029 699.94 94.3438C700.86 93.4519 702.329 93.4743 703.221 94.394C704.113 95.3137 704.09 96.7823 703.17 97.6743C698.866 101.849 692.998 104.39 686.53 104.343H686.53C680.108 104.295 674.256 101.708 669.908 97.506C668.987 96.6158 668.962 95.1472 669.852 94.2259Z" fill="#1C186C"/>
<path fill-rule="evenodd" clip-rule="evenodd" d="M686.557 67.1669C688.842 67.193 690.997 68.4691 692.229 70.7052C693.985 73.8939 695.796 77.1791 697.167 79.6669L699.468 83.8433L704.718 93.3456L704.726 93.3592L705.994 95.692C707.698 98.826 707.036 102.979 704.202 105.214L704.2 105.215C699.199 109.149 693.134 111.451 686.57 111.404L686.567 111.404C680.975 111.358 675.72 109.623 671.175 106.609L671.166 106.603C670.458 106.129 669.674 105.584 668.931 104.946C666.11 102.697 665.411 98.5294 667.125 95.4057L667.128 95.4003L680.848 70.6176C680.848 70.6171 680.848 70.6167 680.849 70.6163C682.086 68.3762 684.266 67.1408 686.557 67.1669ZM697.438 84.9652C695.406 86.085 695.406 86.0849 695.406 86.0849L693.103 81.9061C691.732 79.4181 689.922 76.1329 688.165 72.9439C687.699 72.0984 687.035 71.8122 686.504 71.8062C685.98 71.8002 685.35 72.0624 684.909 72.8606L671.192 97.6382C671.192 97.639 671.192 97.6398 671.191 97.6405C670.497 98.9082 670.873 100.574 671.838 101.33C671.868 101.353 671.896 101.377 671.924 101.401C672.456 101.861 673.061 102.288 673.744 102.746C677.589 105.294 681.973 106.726 686.604 106.765C692.023 106.803 697.08 104.912 701.33 101.57M697.438 84.9652L695.406 86.0849L700.65 95.5757L700.657 95.5893L701.918 97.9082C702.634 99.2255 702.242 100.851 701.33 101.57" fill="#1C186C"/>
<path d="M679.58 91.5785C679.112 91.3645 678.585 91.3645 678.116 91.5785C677.863 91.6855 677.667 91.8353 677.472 92.0279C677.121 92.4345 676.906 92.9696 676.906 93.526C676.906 94.1038 677.101 94.6175 677.472 95.0241C677.843 95.4307 678.311 95.6448 678.838 95.6448C679.365 95.6448 679.834 95.4307 680.204 95.0241C680.575 94.6175 680.77 94.0824 680.77 93.526C680.77 92.9696 680.556 92.4345 680.204 92.0279C680.029 91.8139 679.814 91.6641 679.58 91.5785Z" fill="#201D67"/>
<path d="M687.269 93.6776C686.801 93.4636 686.274 93.4636 685.806 93.6776C685.572 93.7846 685.357 93.9344 685.162 94.127C684.81 94.5336 684.596 95.0687 684.596 95.6251C684.596 96.203 684.791 96.7166 685.162 97.1232C685.532 97.5299 686.001 97.7439 686.528 97.7439C687.055 97.7439 687.523 97.5299 687.894 97.1232C688.265 96.7166 688.46 96.203 688.46 95.6251C688.46 95.0687 688.245 94.5336 687.894 94.127C687.718 93.9344 687.523 93.7846 687.269 93.6776Z" fill="#201D67"/>
<path d="M695.623 92.0065C694.901 91.2146 693.613 91.2146 692.891 92.0065C692.54 92.4131 692.325 92.9481 692.325 93.5046C692.325 94.0824 692.52 94.5961 692.891 95.0027C693.262 95.4093 693.73 95.6233 694.257 95.6233C694.511 95.6233 694.765 95.5591 694.979 95.4521C695.214 95.3451 695.428 95.1953 695.623 95.0027C695.994 94.5961 696.189 94.0824 696.189 93.5046C696.17 92.9696 695.955 92.4131 695.623 92.0065Z" fill="#201D67"/>
<path d="M692.168 84.2606C692.07 83.9823 691.934 83.7684 691.758 83.5543C691.036 82.7625 689.748 82.7625 689.026 83.5543C688.85 83.7684 688.714 83.9823 688.616 84.2606C688.519 84.5174 688.46 84.7956 688.46 85.0524C688.46 85.3307 688.519 85.6089 688.616 85.8443C688.714 86.1011 688.85 86.3365 689.026 86.5505C689.397 86.9572 689.865 87.1712 690.392 87.1712C690.646 87.1712 690.899 87.107 691.114 87C691.348 86.8929 691.563 86.7432 691.758 86.5505C692.129 86.1439 692.324 85.6303 692.324 85.0524C692.324 84.7956 692.266 84.5174 692.168 84.2606Z" fill="#201D67"/>
<path d="M684.458 84.2606C684.36 84.0037 684.224 83.7684 684.048 83.5543C683.307 82.7625 682.019 82.7625 681.316 83.5543C681.14 83.7684 681.004 83.9823 680.906 84.2606C680.809 84.5174 680.75 84.7956 680.75 85.0524C680.75 85.6303 680.945 86.1439 681.316 86.5505C681.511 86.7432 681.726 86.8929 681.96 87C682.194 87.107 682.448 87.1712 682.702 87.1712C683.229 87.1712 683.697 86.9572 684.068 86.5505C684.243 86.3365 684.38 86.1011 684.478 85.8443C684.595 85.5875 684.634 85.3093 684.634 85.0524C684.614 84.7956 684.575 84.5174 684.458 84.2606Z" fill="#201D67"/>
<path d="M685.181 78.1171C685.552 78.5237 686.02 78.7378 686.547 78.7378C686.801 78.7378 687.055 78.6736 687.269 78.5666C687.504 78.4596 687.718 78.3097 687.913 78.1171C688.089 77.9031 688.226 77.6677 688.323 77.4109C688.421 77.154 688.479 76.8758 688.479 76.619C688.479 76.0412 688.265 75.5276 687.913 75.1209C687.367 74.5431 686.528 74.3291 685.806 74.6715C685.552 74.7785 685.357 74.9283 685.162 75.1209C684.81 75.5276 684.596 76.0626 684.596 76.619C684.596 76.8972 684.654 77.1754 684.752 77.4109C684.869 77.6677 685.006 77.9031 685.181 78.1171Z" fill="#201D67"/>
<path fill-rule="evenodd" clip-rule="evenodd" d="M501.659 231.385C502.19 231.8 502.515 232.426 502.547 233.1C502.737 236.989 505.313 239.957 508.373 240.594C509.565 240.842 510.362 241.969 510.199 243.176C510.128 243.701 510.083 244.187 510.083 244.641C510.083 249.29 513.062 252.945 516.699 253.788C517.369 253.944 517.935 254.388 518.245 255.002C518.556 255.615 518.578 256.335 518.305 256.966C515.63 263.173 509.792 267.635 502.846 267.635C493.229 267.635 485.771 259.135 485.771 249.136C485.771 240.214 491.665 232.546 499.779 230.937C500.441 230.806 501.127 230.97 501.659 231.385ZM498.368 236.213C493.791 238.199 490.411 243.149 490.411 249.136C490.411 256.985 496.185 262.995 502.846 262.995C506.904 262.995 510.589 260.807 512.881 257.301C508.415 255.038 505.444 250.136 505.444 244.641C505.444 244.602 505.444 244.564 505.444 244.525C501.981 243.092 499.385 239.975 498.368 236.213Z" fill="#1C186C"/>
<path d="M496.737 240.318C495.546 240.318 494.57 241.388 494.57 242.693C494.57 243.999 495.546 245.069 496.737 245.069C497.927 245.069 498.903 243.999 498.903 242.693C498.903 241.367 497.927 240.318 496.737 240.318Z" fill="#201D67"/>
<path d="M491.955 227.926C490.765 227.926 489.789 228.996 489.789 230.301C489.789 231.607 490.765 232.677 491.955 232.677C493.146 232.677 494.122 231.607 494.122 230.301C494.102 228.974 493.146 227.926 491.955 227.926Z" fill="#201D67"/>
<path d="M503.04 247.617C501.85 247.617 500.874 248.687 500.874 249.992C500.874 251.298 501.85 252.368 503.04 252.368C504.231 252.368 505.207 251.298 505.207 249.992C505.207 248.665 504.231 247.617 503.04 247.617Z" fill="#201D67"/>
<path fill-rule="evenodd" clip-rule="evenodd" d="M506.145 259.104C506.145 259.104 506.145 259.104 506.145 259.104L506.129 259.114L506.079 259.146C506.034 259.174 505.969 259.215 505.887 259.267C505.724 259.371 505.496 259.517 505.241 259.683C504.969 259.859 504.728 260.013 504.555 260.123C504.468 260.178 504.398 260.223 504.35 260.253L504.293 260.289L504.272 260.302C504.272 260.302 504.272 260.303 503.04 258.337C501.778 256.39 501.778 256.39 501.778 256.39L501.857 256.339C501.906 256.307 501.977 256.262 502.064 256.206C502.232 256.098 502.46 255.952 502.708 255.795C502.978 255.614 503.223 255.457 503.404 255.344C503.497 255.285 503.574 255.238 503.629 255.204L503.694 255.164L503.713 255.153L503.722 255.148C503.722 255.148 503.723 255.147 504.913 257.138L503.722 255.148C504.814 254.495 506.228 254.842 506.892 255.927C507.556 257.012 507.223 258.429 506.145 259.104ZM503.04 258.337L504.272 260.302C503.192 260.979 501.768 260.658 501.083 259.583C500.399 258.509 500.709 257.083 501.778 256.39L503.04 258.337Z" fill="#1C186C"/>
<path fill-rule="evenodd" clip-rule="evenodd" d="M492.888 249.999C492.336 251.156 492.827 252.54 493.983 253.092ZM493.983 253.092L494.981 250.998ZM494.981 250.998L495.98 248.904C495.98 248.904 495.98 248.904 494.981 250.998ZM495.974 254.033C497.13 254.585 498.515 254.094 499.066 252.938C499.617 251.781 499.127 250.397 497.97 249.845L496.972 251.939C497.97 249.845 497.97 249.845 497.97 249.845L497.673 249.704C497.491 249.618 497.24 249.499 496.963 249.369C496.693 249.242 496.447 249.126 496.268 249.041L495.98 248.904M494.981 250.998C493.983 253.092 493.983 253.092 493.983 253.092ZM493.983 253.092L493.985 253.092ZM493.985 253.092L493.989 253.094ZM493.989 253.094L494.004 253.102ZM494.004 253.102L494.064 253.13ZM494.064 253.13L494.28 253.233ZM494.28 253.233C494.462 253.319 494.714 253.438 494.99 253.568ZM494.99 253.568C495.26 253.695 495.507 253.812 495.685 253.896ZM495.685 253.896L495.897 253.997ZM495.897 253.997L495.954 254.024ZM495.954 254.024L495.969 254.031ZM495.969 254.031L495.973 254.033ZM495.973 254.033L495.974 254.033Z" fill="#1C186C"/>
<path fill-rule="evenodd" clip-rule="evenodd" d="M485.194 234.298C486.084 233.377 487.552 233.351 488.474 234.241C489.396 235.131 489.421 236.599 488.531 237.521C488.531 237.521 488.531 237.521 488.531 237.521L488.305 237.756C488.165 237.902 487.972 238.103 487.759 238.325C487.542 238.552 487.345 238.758 487.203 238.906L486.97 239.147C486.081 240.069 484.612 240.095 483.69 239.205C482.768 238.315 482.742 236.846 483.632 235.925L483.858 235.69C483.999 235.544 484.192 235.343 484.404 235.12C484.621 234.893 484.818 234.688 484.961 234.54L485.194 234.298C485.194 234.298 485.194 234.298 486.863 235.91L485.194 234.298Z" fill="#1C186C"/>
<path fill-rule="evenodd" clip-rule="evenodd" d="M493.108 228.043C487.384 228.043 482.391 233.197 482.391 240.019C482.391 243.106 483.439 245.89 485.138 248.004C485.941 249.003 485.782 250.463 484.783 251.266C483.785 252.068 482.324 251.909 481.522 250.911C479.162 247.974 477.751 244.166 477.751 240.019C477.751 231.047 484.428 223.403 493.108 223.403C500.101 223.403 505.844 228.406 507.767 235.028C508.124 236.258 507.417 237.545 506.186 237.903C504.956 238.26 503.669 237.552 503.312 236.322C501.878 231.387 497.746 228.043 493.108 228.043Z" fill="#1C186C"/>
<path fill-rule="evenodd" clip-rule="evenodd" d="M769.983 157.551C771.619 157.036 773.353 156.977 775.019 157.383C776.264 157.686 777.027 158.941 776.724 160.186C776.421 161.43 775.166 162.194 773.921 161.891C773.08 161.686 772.208 161.714 771.377 161.976C770.558 162.234 769.788 162.716 769.143 163.401C769.141 163.404 769.138 163.41 769.134 163.42C769.127 163.44 769.121 163.467 769.121 163.5C769.121 163.532 769.127 163.559 769.134 163.58C769.14 163.594 769.145 163.602 769.146 163.603L771.371 166.129C772.218 167.09 772.125 168.556 771.164 169.403C770.202 170.25 768.737 170.157 767.89 169.196L765.666 166.672C765.666 166.672 765.666 166.672 765.666 166.672C764.888 165.789 764.481 164.649 764.481 163.5C764.481 162.35 764.887 161.21 765.666 160.327C765.678 160.314 765.69 160.3 765.703 160.287C766.88 159.015 768.348 158.066 769.983 157.551Z" fill="#1C186C"/>
<path fill-rule="evenodd" clip-rule="evenodd" d="M788.59 173.602C789.848 173.36 791.065 174.183 791.307 175.441C791.641 177.177 791.577 178.977 791.116 180.682C790.657 182.387 789.812 183.959 788.64 185.249C788.242 185.689 787.757 186.051 787.206 186.303C786.653 186.555 786.052 186.689 785.438 186.689C784.824 186.689 784.223 186.555 783.67 186.303C783.118 186.051 782.632 185.688 782.234 185.247L782.227 185.24L782.227 185.24L779.964 182.714C779.108 181.76 779.188 180.294 780.142 179.439C781.096 178.583 782.563 178.664 783.418 179.617L785.433 181.865C785.978 181.188 786.394 180.374 786.637 179.474C786.913 178.451 786.953 177.365 786.751 176.319C786.509 175.061 787.332 173.844 788.59 173.602Z" fill="#1C186C"/>
<path fill-rule="evenodd" clip-rule="evenodd" d="M762.208 180.826C762.337 180.91 762.468 180.987 762.602 181.056C762.642 181.077 762.681 181.099 762.72 181.122C763.08 181.337 763.459 181.492 763.847 181.588C764.031 181.601 764.217 181.6 764.401 181.586C765.231 181.416 766.031 181.067 766.754 180.551C766.116 180.261 765.44 180.111 764.762 180.105C763.88 180.105 763.001 180.35 762.208 180.826ZM764.641 186.22C764.175 186.25 763.707 186.24 763.242 186.192C763.16 186.183 763.078 186.17 762.998 186.153C762.084 185.958 761.209 185.615 760.401 185.141C759.306 184.561 758.333 183.766 757.529 182.807L757.517 182.793C757.036 182.21 756.795 181.488 756.795 180.771C756.795 180.054 757.036 179.331 757.517 178.748C757.547 178.712 757.578 178.677 757.61 178.643C759.486 176.631 762.052 175.463 764.773 175.465L764.787 175.465C766.779 175.48 768.705 176.122 770.336 177.29C771.002 177.766 771.34 178.529 771.304 179.29C771.332 179.316 771.358 179.343 771.385 179.37C772.109 179.437 772.791 179.843 773.182 180.521C774.196 182.279 774.724 184.299 774.722 186.347M774.722 186.348C774.721 187.741 774.469 189.124 773.975 190.419C773.481 191.714 772.753 192.903 771.824 193.911C771.8 193.936 771.777 193.961 771.753 193.985C771.203 194.53 770.447 194.868 769.621 194.868C768.795 194.868 768.038 194.53 767.489 193.985C767.458 193.954 767.428 193.923 767.399 193.891C766.586 192.988 765.942 191.938 765.49 190.799C765.089 189.944 764.812 189.033 764.665 188.095C764.658 188.051 764.652 188.007 764.648 187.963C764.591 187.383 764.589 186.799 764.641 186.22M769.89 184.684C769.599 185.301 769.384 185.968 769.259 186.67C769.238 186.928 769.238 187.187 769.26 187.445C769.336 187.898 769.468 188.334 769.65 188.74C769.933 187.986 770.082 187.171 770.082 186.345L770.082 186.343C770.083 185.778 770.017 185.221 769.89 184.684Z" fill="#1C186C"/>
<path fill-rule="evenodd" clip-rule="evenodd" d="M786.841 150.836C788.064 150.54 789.331 150.507 790.568 150.739C791.838 150.978 793.04 151.49 794.106 152.234C794.135 152.255 794.165 152.277 794.194 152.299C794.624 152.631 795.013 153.014 795.353 153.438C797.492 156.005 797.749 159.257 797.402 162.055C797.049 164.889 796.033 167.661 795.136 169.706L795.128 169.723C793.179 174.076 790.097 177.742 786.232 180.245C786.201 180.265 786.171 180.284 786.139 180.302C782.39 182.489 778.223 183.718 773.957 183.883C773.937 183.887 773.921 183.89 773.909 183.893L773.905 183.893C773.772 183.92 773.628 183.943 773.487 183.964C773.204 184.005 772.869 184.042 772.538 184.068C772.221 184.092 771.84 184.11 771.491 184.095C771.328 184.088 771.075 184.07 770.805 184.008C770.672 183.977 770.45 183.917 770.204 183.795C770.033 183.709 769.705 183.523 769.411 183.168L767.341 180.836C767.017 180.497 766.875 180.148 766.822 180.009C766.732 179.77 766.693 179.56 766.675 179.438C766.638 179.188 766.633 178.949 766.634 178.789C766.635 178.447 766.664 178.06 766.694 177.738C766.721 177.436 766.754 177.131 766.78 176.892C766.783 176.867 766.786 176.843 766.788 176.819C766.814 176.581 766.821 176.498 766.823 176.499C766.823 176.499 766.823 176.516 766.823 176.543C766.823 176.514 766.824 176.484 766.825 176.454C767.004 171.814 768.143 167.272 770.165 163.169C770.183 163.133 770.201 163.098 770.221 163.063C772.53 158.93 775.887 155.576 779.921 153.424C782.064 152.13 784.406 151.252 786.841 150.836ZM789.711 155.299C789.105 155.185 788.485 155.204 787.884 155.357C787.82 155.373 787.756 155.387 787.692 155.397C785.799 155.711 783.964 156.395 782.273 157.423C782.234 157.447 782.194 157.47 782.153 157.492C778.941 159.193 776.207 161.884 774.3 165.274C772.592 168.76 771.619 172.635 771.462 176.608C771.46 176.686 771.456 176.751 771.453 176.788C771.449 176.847 771.444 176.906 771.438 176.96C771.428 177.068 771.414 177.195 771.401 177.321C771.398 177.345 771.396 177.368 771.393 177.393C771.366 177.636 771.338 177.899 771.314 178.158C771.309 178.21 771.305 178.261 771.301 178.309L772.299 179.432C772.488 179.415 772.673 179.394 772.822 179.372C772.892 179.362 772.944 179.353 772.978 179.347C773.169 179.291 773.366 179.26 773.565 179.254C777.111 179.152 780.597 178.153 783.755 176.322C786.806 174.333 789.295 171.393 790.89 167.835C791.71 165.965 792.526 163.669 792.797 161.482C793.073 159.264 792.747 157.55 791.78 156.397C791.768 156.382 791.755 156.367 791.743 156.352C791.637 156.219 791.522 156.103 791.4 156.004C790.873 155.646 790.299 155.41 789.711 155.299ZM771.678 179.459C771.678 179.459 771.681 179.459 771.688 179.46C771.681 179.459 771.678 179.459 771.678 179.459ZM771.274 178.847C771.274 178.847 771.274 178.846 771.274 178.843Z" fill="#1C186C"/>
<path fill-rule="evenodd" clip-rule="evenodd" d="M779.368 155.151C780.604 154.816 781.879 155.546 782.214 156.783C782.915 159.369 784.173 161.711 785.863 163.615C787.557 165.508 789.632 166.894 791.894 167.674C793.105 168.091 793.749 169.411 793.331 170.623C792.914 171.834 791.593 172.477 790.382 172.06C787.339 171.011 784.602 169.164 782.403 166.705L782.397 166.699L782.397 166.699C780.211 164.239 778.617 161.25 777.736 157.997C777.401 156.76 778.131 155.486 779.368 155.151Z" fill="#1C186C"/>
<path d="M788.406 157.453C788.224 157.246 788.005 157.081 787.764 156.969C787.522 156.856 787.263 156.798 787 156.798C786.738 156.798 786.478 156.856 786.237 156.969C785.996 157.081 785.777 157.246 785.595 157.453C785.33 157.756 785.151 158.137 785.081 158.55C785.012 158.963 785.055 159.389 785.204 159.776C785.354 160.162 785.604 160.492 785.924 160.723C786.243 160.955 786.618 161.079 787 161.079C787.383 161.079 787.758 160.955 788.077 160.723C788.397 160.492 788.647 160.162 788.797 159.776C788.946 159.389 788.989 158.963 788.92 158.55C788.85 158.137 788.671 157.756 788.406 157.453Z" fill="#201D67"/>
<path fill-rule="evenodd" clip-rule="evenodd" d="M288.92 244.893C289.006 243.614 290.112 242.648 291.391 242.734C297.441 243.141 303.397 246.034 308.046 251.201L308.046 251.202C312.652 256.323 315.165 262.823 315.545 269.31C315.62 270.589 314.644 271.687 313.365 271.762C312.086 271.837 310.989 270.861 310.914 269.582C310.592 264.085 308.46 258.6 304.596 254.304M288.92 244.893C288.834 246.171 289.801 247.277 291.079 247.363ZM291.079 247.363C295.841 247.683 300.697 249.97 304.596 254.304Z" fill="#1C186C"/>
<path fill-rule="evenodd" clip-rule="evenodd" d="M294.881 240.911C293.915 240.737 292.627 241.411 292.267 243.026L292.265 243.038L291.641 245.773L291.64 245.778L289.107 256.995L288.974 257.623L288.968 257.648L287.465 264.346L287.459 264.375L287.346 264.852L285.632 272.54L285.631 272.545C285.383 273.642 285.705 274.587 286.225 275.169C286.73 275.734 287.39 275.954 288.095 275.766C288.095 275.766 288.095 275.766 288.095 275.766L312.451 269.238L312.452 269.238L314.848 268.597C314.849 268.597 314.849 268.597 314.85 268.597C315.938 268.302 316.953 266.924 316.709 265.268C315.811 259.18 313.348 253.521 309.32 249.065L309.317 249.061C305.27 244.564 300.229 241.869 294.883 240.911L294.881 240.911ZM295.701 236.344C291.908 235.663 288.554 238.367 287.74 242.013L287.117 244.746L284.579 255.987L284.572 256.015L284.438 256.645L282.942 263.316L282.828 263.794L282.821 263.826L281.104 271.525C281.104 271.526 281.104 271.527 281.104 271.528C280.532 274.069 281.235 276.547 282.764 278.259C284.308 279.989 286.722 280.936 289.295 280.247L313.651 273.72L313.652 273.72L316.056 273.077C319.729 272.086 321.836 268.242 321.299 264.592C320.284 257.712 317.479 251.173 312.764 245.956C308.03 240.695 302.065 237.484 295.702 236.344" fill="#1C186C"/>
<path fill-rule="evenodd" clip-rule="evenodd" d="M300.253 259.624C300.077 259.819 299.934 260.13 299.934 260.523C299.934 260.915 300.077 261.227 300.253 261.422C300.425 261.613 300.599 261.67 300.737 261.67C300.875 261.67 301.05 261.613 301.222 261.422C301.397 261.227 301.54 260.915 301.54 260.523C301.54 260.13 301.397 259.819 301.222 259.624C301.05 259.433 300.875 259.375 300.737 259.375C300.599 259.375 300.425 259.433 300.253 259.624ZM295.295 260.523C295.295 257.561 297.509 254.736 300.737 254.736C303.965 254.736 306.18 257.561 306.18 260.523C306.18 263.484 303.965 266.309 300.737 266.309C297.509 266.309 295.295 263.484 295.295 260.523Z" fill="#1C186C"/>
<path fill-rule="evenodd" clip-rule="evenodd" d="M285.945 253.084C286.482 252.756 287.129 252.661 287.738 252.819C288.877 253.115 289.985 253.719 290.898 254.721L290.908 254.731L290.908 254.731C293.296 257.382 293.311 261.592 290.905 264.238C289.236 266.097 286.729 266.776 284.447 265.989C283.331 265.604 282.681 264.442 282.939 263.29L284.891 254.558C285.028 253.944 285.408 253.412 285.945 253.084Z" fill="#1C186C"/>
<path fill-rule="evenodd" clip-rule="evenodd" d="M294.23 272.856C293.922 273.205 293.767 273.78 293.901 274.35C294.195 275.597 293.423 276.847 292.176 277.141C290.929 277.435 289.679 276.662 289.385 275.415C288.935 273.505 289.364 271.342 290.77 269.765L290.776 269.758L290.776 269.758C293.004 267.279 296.715 267.277 298.945 269.752C299.654 270.532 300.129 271.479 300.349 272.479C300.625 273.731 299.833 274.968 298.582 275.244C297.331 275.519 296.093 274.728 295.818 273.477C295.766 273.239 295.657 273.032 295.511 272.872L295.499 272.859C295.273 272.607 295.04 272.537 294.863 272.537C294.688 272.537 294.456 272.606 294.23 272.856Z" fill="#1C186C"/>
<path fill-rule="evenodd" clip-rule="evenodd" d="M852.415 231.521C852.501 230.242 853.607 229.276 854.885 229.362C860.935 229.769 866.891 232.662 871.54 237.829L871.54 237.83C876.146 242.951 878.659 249.451 879.04 255.938C879.115 257.217 878.139 258.315 876.86 258.39C875.581 258.465 874.483 257.489 874.408 256.21C874.086 250.713 871.954 245.228 868.09 240.932M852.415 231.521C852.328 232.799 853.295 233.905 854.573 233.991ZM854.573 233.991C859.335 234.311 864.191 236.598 868.09 240.932Z" fill="#1C186C"/>
<path fill-rule="evenodd" clip-rule="evenodd" d="M858.378 227.54C857.411 227.366 856.123 228.04 855.764 229.655L855.761 229.667L855.137 232.402L855.136 232.407L852.603 243.624L852.47 244.252L852.464 244.277L850.962 250.975L850.955 251.004L850.842 251.48L849.128 259.169L849.127 259.174C848.879 260.271 849.201 261.216 849.721 261.798C850.226 262.363 850.886 262.583 851.591 262.395C851.591 262.394 851.591 262.395 851.591 262.395L875.947 255.867L875.948 255.867L878.344 255.226C878.345 255.226 878.345 255.226 878.346 255.225C879.434 254.931 880.449 253.553 880.205 251.897C879.307 245.809 876.844 240.15 872.817 235.694L872.813 235.69C868.766 231.193 863.725 228.497 858.379 227.54L858.378 227.54ZM859.197 222.973C855.405 222.292 852.05 224.996 851.236 228.641L850.613 231.375L848.075 242.616L848.068 242.644L847.934 243.273L846.438 249.945L846.324 250.423L846.317 250.455L844.601 258.154C844.6 258.155 844.6 258.156 844.6 258.157C844.029 260.698 844.731 263.176 846.26 264.888C847.805 266.618 850.218 267.565 852.791 266.876L877.147 260.349L877.148 260.349L879.552 259.706C883.225 258.715 885.332 254.871 884.795 251.221C883.781 244.341 880.975 237.801 876.26 232.585C871.526 227.324 865.561 224.113 859.198 222.973" fill="#1C186C"/>
<path fill-rule="evenodd" clip-rule="evenodd" d="M863.749 246.251C863.574 246.445 863.431 246.757 863.431 247.15C863.431 247.542 863.574 247.854 863.749 248.049C863.921 248.24 864.095 248.297 864.233 248.297C864.371 248.297 864.546 248.24 864.718 248.049C864.893 247.854 865.036 247.542 865.036 247.15C865.036 246.757 864.893 246.445 864.718 246.251C864.546 246.059 864.371 246.002 864.233 246.002C864.095 246.002 863.921 246.059 863.749 246.251ZM858.791 247.15C858.791 244.188 861.005 241.363 864.233 241.363C867.462 241.363 869.676 244.188 869.676 247.15C869.676 250.111 867.462 252.936 864.233 252.936C861.005 252.936 858.791 250.111 858.791 247.15Z" fill="#1C186C"/>
<path fill-rule="evenodd" clip-rule="evenodd" d="M849.44 239.714C849.977 239.386 850.624 239.29 851.233 239.449C852.373 239.745 853.48 240.349 854.393 241.351L854.403 241.361L854.403 241.361C856.791 244.012 856.806 248.222 854.4 250.868C852.731 252.726 850.225 253.405 847.942 252.619C846.826 252.234 846.177 251.072 846.434 249.92L848.386 241.188C848.523 240.574 848.904 240.042 849.44 239.714Z" fill="#1C186C"/>
<path fill-rule="evenodd" clip-rule="evenodd" d="M857.726 259.484C857.417 259.833 857.262 260.408 857.396 260.978C857.69 262.225 856.918 263.474 855.671 263.769C854.424 264.063 853.175 263.29 852.88 262.043C852.43 260.133 852.859 257.97 854.266 256.393L854.271 256.386L854.271 256.386C856.499 253.907 860.21 253.905 862.44 256.38C863.149 257.16 863.624 258.106 863.844 259.107C864.12 260.359 863.329 261.596 862.077 261.872C860.826 262.147 859.589 261.356 859.313 260.105C859.261 259.867 859.152 259.66 859.006 259.5L858.994 259.487C858.768 259.235 858.535 259.165 858.358 259.165C858.183 259.165 857.951 259.234 857.726 259.484Z" fill="#1C186C"/>
<path fill-rule="evenodd" clip-rule="evenodd" d="M870.93 68.2714C873.977 64.9297 879 64.9297 882.047 68.2714C884.982 71.4898 884.982 76.6114 882.047 79.8298L862.063 101.745C859.016 105.087 853.993 105.087 850.945 101.745C848.01 98.5266 848.01 93.4049 850.945 90.1865L870.93 68.2714ZM878.619 71.3976C877.412 70.0737 875.565 70.0737 874.358 71.3976L854.373 93.3127C853.054 94.7599 853.054 97.1716 854.373 98.6187C855.581 99.9426 857.427 99.9426 858.635 98.6187L878.619 76.7036C879.939 75.2564 879.939 72.8448 878.619 71.3976Z" fill="#1C186C"/>
<path fill-rule="evenodd" clip-rule="evenodd" d="M876.88 72.6995C877.827 73.5627 877.895 75.03 877.031 75.9766C876.142 76.9517 875.888 77.5429 875.568 78.2852L875.555 78.3163C875.139 79.2821 874.647 80.4109 873.245 81.9477C871.836 83.4931 870.785 84.0498 869.875 84.5206C869.86 84.5286 869.845 84.5364 869.829 84.5443C869.19 84.875 868.674 85.1416 867.803 86.096C866.914 87.0809 866.657 87.6757 866.338 88.4144L866.323 88.4496C865.906 89.4153 865.413 90.5362 864.014 92.0706L864.007 92.0778L864.007 92.0778C862.591 93.6179 861.544 94.1724 860.639 94.6422C860.625 94.6498 860.61 94.6573 860.596 94.6648C859.959 94.995 859.445 95.2617 858.569 96.2225C857.706 97.1691 856.239 97.2367 855.292 96.3735C854.345 95.5102 854.278 94.0429 855.141 93.0963C856.548 91.5534 857.592 90.9969 858.501 90.5247C858.517 90.5162 858.534 90.5078 858.55 90.4994C859.188 90.1684 859.707 89.8989 860.589 88.9408C861.479 87.9645 861.733 87.3763 862.051 86.6389L862.063 86.6104C862.478 85.649 862.969 84.5246 864.365 82.9806L864.372 82.9733L864.372 82.9734C865.781 81.4279 866.833 80.8712 867.742 80.4004C867.757 80.3925 867.773 80.3846 867.788 80.3767C868.428 80.0457 868.944 79.7787 869.817 78.8215C870.706 77.8464 870.961 77.2552 871.28 76.5129L871.293 76.4818C871.709 75.516 872.202 74.3872 873.603 72.8505C874.466 71.9038 875.934 71.8362 876.88 72.6995Z" fill="#1C186C"/>
<path fill-rule="evenodd" clip-rule="evenodd" d="M864.018 65.7484C867.478 61.9291 873.216 61.9313 876.673 65.7799C877.469 66.6665 877.464 68.0124 876.661 68.893L852.07 95.8589C851.631 96.3409 851.009 96.6156 850.356 96.6156C849.704 96.6156 849.082 96.3409 848.642 95.8589C845.278 92.1697 845.278 86.299 848.642 82.6098L864.015 65.7519C864.016 65.7508 864.017 65.7496 864.018 65.7484ZM871.461 67.7091C870.087 67.2602 868.557 67.6474 867.455 68.865L867.449 68.8716L867.449 68.8716L852.07 85.736C850.95 86.9645 850.547 88.703 850.862 90.2981L871.461 67.7091Z" fill="#1C186C"/>
<path fill-rule="evenodd" clip-rule="evenodd" d="M882.637 73.3984C883.289 73.3984 883.911 73.6731 884.351 74.1551C887.715 77.8443 887.715 83.715 884.351 87.4042L868.978 104.262C868.977 104.263 868.976 104.265 868.975 104.266C865.515 108.085 859.777 108.083 856.32 104.234C855.524 103.347 855.529 102.002 856.332 101.121L880.923 74.1551C881.362 73.6731 881.984 73.3984 882.637 73.3984ZM882.131 79.7158L861.532 102.305C862.906 102.754 864.436 102.367 865.538 101.149L865.544 101.142L865.544 101.142L880.923 84.278C882.043 83.0495 882.446 81.311 882.131 79.7158Z" fill="#1C186C"/>
<path fill-rule="evenodd" clip-rule="evenodd" d="M85.5352 264.953C85.5352 263.671 86.5738 262.633 87.8549 262.633H119.94C121.221 262.633 122.259 263.671 122.259 264.953V269.062C122.259 273.946 118.607 278.273 113.655 278.273H94.1392C89.1874 278.273 85.5352 273.946 85.5352 269.062V264.953ZM90.1747 267.272V269.062C90.1747 271.796 92.1431 273.633 94.1392 273.633H113.655C115.651 273.633 117.62 271.796 117.62 269.062V267.272H90.1747Z" fill="#1C186C"/>
<path fill-rule="evenodd" clip-rule="evenodd" d="M83.5244 261.656C83.5244 258.761 85.7129 256.04 88.8497 256.04H118.944C122.08 256.04 124.269 258.761 124.269 261.656C124.269 264.55 122.08 267.271 118.944 267.271H88.8497C85.7129 267.271 83.5244 264.55 83.5244 261.656ZM88.439 260.889C88.2876 261.055 88.164 261.32 88.164 261.656C88.164 261.991 88.2876 262.257 88.439 262.423C88.5872 262.585 88.7349 262.632 88.8497 262.632H118.944C119.058 262.632 119.206 262.585 119.354 262.423C119.506 262.257 119.629 261.991 119.629 261.656C119.629 261.32 119.506 261.055 119.354 260.889C119.206 260.726 119.058 260.68 118.944 260.68H88.8497C88.7349 260.68 88.5872 260.726 88.439 260.889Z" fill="#1C186C"/>
<path fill-rule="evenodd" clip-rule="evenodd" d="M85.5352 257.226C85.5352 247.055 93.0906 238.449 102.863 238.449H104.932C114.704 238.449 122.259 247.055 122.259 257.226V258.361C122.259 259.642 121.221 260.68 119.94 260.68H87.8549C86.5738 260.68 85.5352 259.642 85.5352 258.361V257.226ZM90.2179 256.041H117.577C117.032 248.611 111.408 243.088 104.932 243.088H102.863C96.3864 243.088 90.7629 248.611 90.2179 256.041Z" fill="#1C186C"/>
<path fill-rule="evenodd" clip-rule="evenodd" d="M86.1401 263.716C87.1178 262.889 88.5816 263.01 89.4095 263.988C89.6162 264.232 89.8166 264.501 89.9619 264.697C89.9913 264.736 90.0184 264.773 90.0429 264.805C90.1914 265.004 90.2904 265.127 90.3714 265.216C90.4525 265.127 90.5514 265.004 90.7 264.805C90.7245 264.773 90.7516 264.736 90.781 264.697C90.9263 264.501 91.1267 264.232 91.3333 263.988C92.1613 263.01 93.625 262.889 94.6028 263.716C95.5805 264.544 95.702 266.008 94.8741 266.986C94.7708 267.108 94.6784 267.232 94.54 267.417C94.5013 267.469 94.4591 267.526 94.412 267.589C94.225 267.838 93.9626 268.182 93.6415 268.509C92.9365 269.227 91.8823 269.925 90.3714 269.925C88.8606 269.925 87.8063 269.227 87.1014 268.509C86.7803 268.182 86.5179 267.838 86.3308 267.589C86.2838 267.526 86.2415 267.469 86.2029 267.417C86.0645 267.232 85.9721 267.108 85.8688 266.986C85.0409 266.008 85.1623 264.544 86.1401 263.716Z" fill="#1C186C"/>
<path fill-rule="evenodd" clip-rule="evenodd" d="M104.466 263.716C105.444 262.889 106.908 263.01 107.736 263.988C107.942 264.232 108.143 264.501 108.288 264.697C108.317 264.736 108.345 264.773 108.369 264.805C108.523 265.011 108.624 265.136 108.706 265.225C108.789 265.137 108.89 265.012 109.047 264.804C109.071 264.771 109.099 264.733 109.13 264.693C109.274 264.498 109.474 264.23 109.679 263.988C110.507 263.01 111.971 262.889 112.948 263.716C113.926 264.544 114.048 266.008 113.22 266.986C113.117 267.107 113.026 267.229 112.89 267.411C112.85 267.465 112.806 267.524 112.756 267.59C112.568 267.841 112.304 268.185 111.98 268.514C111.266 269.236 110.208 269.925 108.698 269.925C107.187 269.925 106.132 269.227 105.428 268.509C105.106 268.182 104.844 267.838 104.657 267.589C104.61 267.526 104.568 267.469 104.529 267.417C104.391 267.232 104.298 267.108 104.195 266.986C103.367 266.008 103.489 264.544 104.466 263.716Z" fill="#1C186C"/>
<path fill-rule="evenodd" clip-rule="evenodd" d="M113.659 263.695C114.636 262.867 116.1 262.989 116.928 263.966C117.135 264.21 117.335 264.48 117.48 264.675C117.51 264.715 117.537 264.751 117.561 264.784C117.735 265.016 117.841 265.146 117.93 265.236C117.941 265.248 117.951 265.257 117.96 265.265C119.209 265.302 120.21 266.326 120.21 267.584C120.21 268.865 119.171 269.904 117.89 269.904C116.379 269.904 115.325 269.205 114.62 268.487C114.299 268.16 114.036 267.817 113.849 267.567C113.802 267.504 113.76 267.448 113.721 267.396C113.583 267.21 113.491 267.086 113.387 266.964C112.559 265.987 112.681 264.523 113.659 263.695Z" fill="#1C186C"/>
<path fill-rule="evenodd" clip-rule="evenodd" d="M95.3129 263.716C96.2907 262.889 97.7545 263.01 98.5824 263.988C98.789 264.232 98.9894 264.501 99.1347 264.697C99.1641 264.736 99.1912 264.773 99.2157 264.805C99.3643 265.004 99.4633 265.127 99.5443 265.216C99.6253 265.127 99.7243 265.004 99.8729 264.805C99.8973 264.773 99.9245 264.736 99.9538 264.697C100.099 264.501 100.3 264.232 100.506 263.988C101.334 263.01 102.798 262.889 103.776 263.716C104.753 264.544 104.875 266.008 104.047 266.986C103.944 267.108 103.851 267.232 103.713 267.417C103.674 267.469 103.632 267.526 103.585 267.589C103.398 267.838 103.135 268.182 102.814 268.509C102.109 269.227 101.055 269.925 99.5443 269.925C98.0334 269.925 96.9792 269.227 96.2742 268.509C95.9531 268.182 95.6907 267.838 95.5037 267.589C95.4566 267.526 95.4144 267.469 95.3757 267.417C95.2374 267.232 95.145 267.108 95.0417 266.986C94.2137 266.008 94.3352 264.544 95.3129 263.716Z" fill="#1C186C"/>
<path fill-rule="evenodd" clip-rule="evenodd" d="M756.005 10.2749C756.005 8.99368 757.043 7.95508 758.325 7.95508H790.409C791.69 7.95508 792.729 8.99368 792.729 10.2749V14.3839C792.729 19.2686 789.077 23.595 784.125 23.595H764.609C759.657 23.595 756.005 19.2686 756.005 14.3839V10.2749ZM760.644 12.5946V14.3839C760.644 17.1182 762.613 18.9554 764.609 18.9554H784.125C786.121 18.9554 788.089 17.1182 788.089 14.3839V12.5946H760.644Z" fill="#1C186C"/>
<path fill-rule="evenodd" clip-rule="evenodd" d="M753.995 6.97792C753.995 4.08358 756.184 1.3623 759.32 1.3623H789.414C792.551 1.3623 794.74 4.08358 794.74 6.97792C794.74 9.87226 792.551 12.5935 789.414 12.5935H759.32C756.184 12.5935 753.995 9.87226 753.995 6.97792ZM758.91 6.21093C758.758 6.3769 758.635 6.64223 758.635 6.97792C758.635 7.31361 758.758 7.57893 758.91 7.74491C759.058 7.90747 759.206 7.95397 759.32 7.95397H789.414C789.529 7.95397 789.677 7.90747 789.825 7.74491C789.976 7.57893 790.1 7.31361 790.1 6.97792C790.1 6.64223 789.976 6.3769 789.825 6.21093C789.677 6.04837 789.529 6.00187 789.414 6.00187H759.32C759.206 6.00187 759.058 6.04837 758.91 6.21093Z" fill="#1C186C"/>
<path fill-rule="evenodd" clip-rule="evenodd" d="M756.005 2.54805C756.005 -7.6228 763.56 -16.2295 773.333 -16.2295H775.401C785.174 -16.2295 792.729 -7.6228 792.729 2.54805V3.68232C792.729 4.9635 791.69 6.00211 790.409 6.00211H758.325C757.043 6.00211 756.005 4.9635 756.005 3.68232V2.54805ZM760.688 1.36254H788.046C787.501 -6.06747 781.878 -11.5899 775.401 -11.5899H773.333C766.856 -11.5899 761.233 -6.06747 760.688 1.36254Z" fill="#1C186C"/>
<path fill-rule="evenodd" clip-rule="evenodd" d="M756.613 9.03776C757.59 8.20984 759.054 8.33129 759.882 9.30903C760.089 9.55308 760.289 9.82267 760.435 10.0181C760.464 10.0576 760.491 10.0941 760.516 10.1268C760.664 10.3249 760.763 10.4486 760.844 10.5368C760.925 10.4486 761.024 10.3249 761.173 10.1268C761.197 10.0941 761.224 10.0576 761.254 10.0181C761.399 9.82267 761.599 9.55309 761.806 9.30903C762.634 8.33129 764.098 8.20984 765.075 9.03776C766.053 9.86568 766.175 11.3295 765.347 12.3072C765.243 12.4292 765.151 12.5531 765.013 12.7388C764.974 12.7906 764.932 12.8472 764.885 12.91C764.698 13.1595 764.435 13.503 764.114 13.83C763.409 14.5478 762.355 15.2466 760.844 15.2466C759.333 15.2466 758.279 14.5478 757.574 13.83C757.253 13.503 756.991 13.1595 756.803 12.91C756.756 12.8472 756.714 12.7906 756.676 12.7387C756.537 12.5531 756.445 12.4292 756.341 12.3072C755.514 11.3295 755.635 9.86568 756.613 9.03776Z" fill="#1C186C"/>
<path fill-rule="evenodd" clip-rule="evenodd" d="M774.938 9.03776C775.916 8.20984 777.379 8.33129 778.207 9.30903C778.414 9.55309 778.614 9.82267 778.76 10.0181C778.789 10.0576 778.816 10.0941 778.841 10.1268C778.995 10.3321 779.095 10.4575 779.178 10.5463C779.261 10.4583 779.362 10.3331 779.518 10.1253C779.543 10.092 779.571 10.0546 779.601 10.014C779.746 9.81955 779.946 9.55111 780.151 9.30903C780.979 8.33129 782.442 8.20984 783.42 9.03776C784.398 9.86568 784.519 11.3295 783.691 12.3072C783.589 12.4281 783.498 12.55 783.362 12.7321C783.322 12.7861 783.278 12.8454 783.228 12.9115C783.04 13.1621 782.776 13.5068 782.452 13.8349C781.738 14.5572 780.68 15.2466 779.169 15.2466C777.658 15.2466 776.604 14.5478 775.899 13.83C775.578 13.503 775.316 13.1595 775.129 12.91C775.082 12.8472 775.039 12.7906 775.001 12.7388C774.862 12.5531 774.77 12.4292 774.667 12.3072C773.839 11.3295 773.96 9.86568 774.938 9.03776Z" fill="#1C186C"/>
<path fill-rule="evenodd" clip-rule="evenodd" d="M784.13 9.01725C785.108 8.18933 786.572 8.31078 787.4 9.28852C787.606 9.53258 787.807 9.80217 787.952 9.99762C787.982 10.0371 788.009 10.0736 788.033 10.1062C788.207 10.3383 788.313 10.4682 788.402 10.5586C788.413 10.5698 788.423 10.5794 788.431 10.5876C789.68 10.6244 790.681 11.6484 790.681 12.9064C790.681 14.1875 789.643 15.2261 788.362 15.2261C786.851 15.2261 785.797 14.5273 785.092 13.8095C784.771 13.4825 784.508 13.139 784.321 12.8895C784.274 12.8267 784.232 12.7701 784.193 12.7182C784.055 12.5326 783.962 12.4087 783.859 12.2867C783.031 11.3089 783.153 9.84517 784.13 9.01725Z" fill="#1C186C"/>
<path fill-rule="evenodd" clip-rule="evenodd" d="M765.786 9.03776C766.763 8.20984 768.227 8.33129 769.055 9.30903C769.262 9.55309 769.462 9.82267 769.607 10.0181C769.637 10.0576 769.664 10.0941 769.688 10.1268C769.837 10.3249 769.936 10.4486 770.017 10.5368C770.098 10.4486 770.197 10.3249 770.346 10.1268C770.37 10.0941 770.397 10.0576 770.426 10.0181C770.572 9.82267 770.772 9.55309 770.979 9.30903C771.807 8.33129 773.271 8.20984 774.248 9.03776C775.226 9.86568 775.347 11.3295 774.52 12.3072C774.416 12.4292 774.324 12.5531 774.185 12.7387C774.147 12.7906 774.105 12.8472 774.058 12.91C773.87 13.1595 773.608 13.503 773.287 13.83C772.582 14.5478 771.528 15.2466 770.017 15.2466C768.506 15.2466 767.452 14.5478 766.747 13.83C766.426 13.503 766.163 13.1595 765.976 12.91C765.929 12.8472 765.887 12.7906 765.848 12.7388C765.71 12.5531 765.618 12.4292 765.514 12.3072C764.686 11.3295 764.808 9.86568 765.786 9.03776Z" fill="#1C186C"/>
<path fill-rule="evenodd" clip-rule="evenodd" d="M683.798 277.791C683.798 276.51 684.836 275.472 686.118 275.472H718.202C719.483 275.472 720.522 276.51 720.522 277.791V281.901C720.522 286.785 716.87 291.112 711.918 291.112H692.402C687.45 291.112 683.798 286.785 683.798 281.901V277.791ZM688.437 280.111V281.901C688.437 284.635 690.406 286.472 692.402 286.472H711.918C713.914 286.472 715.882 284.635 715.882 281.901V280.111H688.437Z" fill="#1C186C"/>
<path fill-rule="evenodd" clip-rule="evenodd" d="M681.788 274.496C681.788 271.602 683.977 268.88 687.113 268.88H717.207C720.344 268.88 722.533 271.602 722.533 274.496C722.533 277.39 720.344 280.112 717.207 280.112H687.113C683.977 280.112 681.788 277.39 681.788 274.496ZM686.703 273.729C686.551 273.895 686.428 274.16 686.428 274.496C686.428 274.832 686.551 275.097 686.703 275.263C686.851 275.426 686.999 275.472 687.113 275.472H717.207C717.322 275.472 717.47 275.426 717.618 275.263C717.769 275.097 717.893 274.832 717.893 274.496C717.893 274.16 717.769 273.895 717.618 273.729C717.47 273.566 717.322 273.52 717.207 273.52H687.113C686.999 273.52 686.851 273.566 686.703 273.729Z" fill="#1C186C"/>
<path fill-rule="evenodd" clip-rule="evenodd" d="M683.798 270.065C683.798 259.894 691.353 251.288 701.126 251.288H703.194C712.967 251.288 720.522 259.894 720.522 270.065V271.199C720.522 272.481 719.483 273.519 718.202 273.519H686.118C684.836 273.519 683.798 272.481 683.798 271.199V270.065ZM688.481 268.88H715.839C715.294 261.45 709.671 255.927 703.194 255.927H701.126C694.649 255.927 689.026 261.45 688.481 268.88Z" fill="#1C186C"/>
<path fill-rule="evenodd" clip-rule="evenodd" d="M684.404 276.556C685.381 275.728 686.845 275.849 687.673 276.827C687.88 277.071 688.08 277.341 688.226 277.536C688.255 277.576 688.282 277.612 688.307 277.645C688.455 277.843 688.554 277.967 688.635 278.055C688.716 277.967 688.815 277.843 688.964 277.645C688.988 277.612 689.015 277.576 689.045 277.536C689.19 277.341 689.39 277.071 689.597 276.827C690.425 275.849 691.889 275.728 692.866 276.556C693.844 277.384 693.966 278.848 693.138 279.825C693.034 279.947 692.942 280.071 692.804 280.257C692.765 280.309 692.723 280.365 692.676 280.428C692.489 280.678 692.226 281.021 691.905 281.348C691.2 282.066 690.146 282.765 688.635 282.765C687.124 282.765 686.07 282.066 685.365 281.348C685.044 281.021 684.782 280.678 684.595 280.428C684.547 280.365 684.505 280.309 684.467 280.257C684.328 280.071 684.236 279.947 684.132 279.825C683.305 278.848 683.426 277.384 684.404 276.556Z" fill="#1C186C"/>
<path fill-rule="evenodd" clip-rule="evenodd" d="M702.729 276.556C703.707 275.728 705.17 275.849 705.998 276.827C706.205 277.071 706.405 277.341 706.551 277.536C706.58 277.576 706.607 277.612 706.632 277.645C706.786 277.85 706.886 277.976 706.969 278.064C707.052 277.976 707.153 277.851 707.309 277.643C707.334 277.61 707.362 277.573 707.392 277.532C707.537 277.338 707.737 277.069 707.942 276.827C708.77 275.849 710.233 275.728 711.211 276.556C712.189 277.384 712.31 278.848 711.482 279.825C711.38 279.946 711.289 280.068 711.153 280.25C711.113 280.304 711.069 280.363 711.019 280.43C710.831 280.68 710.567 281.025 710.243 281.353C709.529 282.075 708.471 282.765 706.96 282.765C705.449 282.765 704.395 282.066 703.69 281.348C703.369 281.021 703.107 280.678 702.92 280.428C702.873 280.365 702.83 280.309 702.792 280.257C702.653 280.071 702.561 279.947 702.458 279.825C701.63 278.848 701.751 277.384 702.729 276.556Z" fill="#1C186C"/>
<path fill-rule="evenodd" clip-rule="evenodd" d="M711.921 276.534C712.899 275.706 714.363 275.828 715.191 276.806C715.397 277.05 715.598 277.319 715.743 277.515C715.773 277.554 715.8 277.591 715.824 277.623C715.998 277.855 716.104 277.985 716.193 278.076C716.204 278.087 716.214 278.097 716.222 278.105C717.471 278.141 718.472 279.166 718.472 280.423C718.472 281.705 717.434 282.743 716.153 282.743C714.642 282.743 713.588 282.044 712.883 281.327C712.562 281 712.299 280.656 712.112 280.407C712.065 280.344 712.023 280.287 711.984 280.235C711.846 280.05 711.753 279.926 711.65 279.804C710.822 278.826 710.944 277.362 711.921 276.534Z" fill="#1C186C"/>
<path fill-rule="evenodd" clip-rule="evenodd" d="M693.576 276.556C694.553 275.728 696.017 275.849 696.845 276.827C697.052 277.071 697.252 277.341 697.397 277.536C697.427 277.576 697.454 277.612 697.478 277.645C697.627 277.843 697.726 277.967 697.807 278.055C697.888 277.967 697.987 277.843 698.136 277.645C698.16 277.612 698.187 277.576 698.217 277.536C698.362 277.341 698.562 277.071 698.769 276.827C699.597 275.849 701.061 275.728 702.038 276.556C703.016 277.384 703.138 278.848 702.31 279.825C702.206 279.947 702.114 280.071 701.976 280.257C701.937 280.309 701.895 280.365 701.848 280.428C701.661 280.678 701.398 281.021 701.077 281.348C700.372 282.066 699.318 282.765 697.807 282.765C696.296 282.765 695.242 282.066 694.537 281.348C694.216 281.021 693.953 280.678 693.766 280.428C693.719 280.365 693.677 280.309 693.638 280.257C693.5 280.071 693.408 279.947 693.304 279.825C692.476 278.848 692.598 277.384 693.576 276.556Z" fill="#1C186C"/>
</g>
</svg>
