<svg width="121" height="44" viewBox="0 0 121 44" fill="none" xmlns="http://www.w3.org/2000/svg">
<path d="M120.206 4.5709C120.367 4.0761 120.097 3.54437 119.602 3.38325C119.107 3.22213 118.575 3.49264 118.414 3.98744L120.206 4.5709ZM95.8159 27.3222L95.9627 28.2529L95.8159 27.3222ZM67.8846 11.7488L68.8268 11.7414L67.8846 11.7488ZM76.2515 1.6267L76.3165 2.56667L76.2515 1.6267ZM85.1323 9.01117L84.2461 9.33125L85.1323 9.01117ZM61.4375 34.0302L61.5409 34.9667L61.4375 34.0302ZM35.9964 17.9812L36.9371 17.9274L35.9964 17.9812ZM42.0487 10.1836L42.2808 11.0967L42.0487 10.1836ZM23.72 42.3467L23.7948 41.4074L23.72 42.3467ZM1.35284 28.4455L1.56658 27.5278C1.23178 27.4498 0.881085 27.5604 0.651519 27.8163C0.421953 28.0721 0.349955 28.4327 0.463653 28.7571L1.35284 28.4455ZM9.60167 31.3341C10.1085 31.4522 10.615 31.137 10.7331 30.6302C10.8511 30.1234 10.5359 29.6169 10.0291 29.4988L9.60167 31.3341ZM3.48155 37.3679C3.65367 37.859 4.1913 38.1176 4.68239 37.9455C5.17347 37.7733 5.43205 37.2357 5.25994 36.7446L3.48155 37.3679ZM119.31 4.27917C118.414 3.98744 118.414 3.98721 118.414 3.98706C118.414 3.98711 118.414 3.98703 118.414 3.98713C118.414 3.98734 118.414 3.98785 118.414 3.98866C118.413 3.99029 118.412 3.99315 118.411 3.9972C118.408 4.00532 118.404 4.01824 118.398 4.03583C118.386 4.07101 118.368 4.12484 118.343 4.19617C118.292 4.33884 118.216 4.55142 118.112 4.82466C117.903 5.37128 117.585 6.15984 117.152 7.11647C116.283 9.03164 114.953 11.6102 113.11 14.2663C109.411 19.5972 103.733 25.1193 95.6691 26.3915L95.9627 28.2529C104.756 26.8658 110.824 20.8664 114.658 15.3406C116.582 12.5683 117.965 9.88478 118.868 7.8949C119.319 6.899 119.652 6.07431 119.872 5.4958C119.983 5.20648 120.065 4.97853 120.12 4.82132C120.148 4.7427 120.169 4.68175 120.183 4.63963C120.19 4.61857 120.196 4.60221 120.2 4.59071C120.201 4.58496 120.203 4.58042 120.204 4.57711C120.205 4.57546 120.205 4.57412 120.205 4.57308C120.206 4.57256 120.206 4.57202 120.206 4.57176C120.206 4.57129 120.206 4.5709 119.31 4.27917ZM95.6691 26.3915C89.3714 27.385 82.615 26.2244 77.4488 23.5212C72.2695 20.8111 68.8658 16.6634 68.8268 11.7414L66.9424 11.7563C66.989 17.6401 71.0572 22.3036 76.5752 25.1909C82.1063 28.0851 89.2728 29.3083 95.9627 28.2529L95.6691 26.3915ZM68.8268 11.7414C68.8154 10.2989 69.4128 8.04971 70.699 6.12233C71.9731 4.21323 73.8374 2.73826 76.3165 2.56667L76.1864 0.686727C72.951 0.910664 70.6188 2.84771 69.1316 5.07627C67.6565 7.28655 66.9278 9.90069 66.9424 11.7563L68.8268 11.7414ZM76.3165 2.56667C78.6608 2.40442 80.3393 3.33019 81.594 4.66957C82.8768 6.03894 83.7063 7.83658 84.2461 9.33125L86.0185 8.69109C85.4463 7.10675 84.511 5.02695 82.9693 3.38124C81.3994 1.70554 79.1935 0.478588 76.1864 0.686727L76.3165 2.56667ZM84.2461 9.33125C86.3981 15.2892 84.1035 20.7911 79.4761 25.0861C74.8328 29.3959 67.9438 32.3639 61.3341 33.0936L61.5409 34.9667C68.5098 34.1973 75.7885 31.08 80.7581 26.4673C85.7437 21.8398 88.5073 15.5818 86.0185 8.69109L84.2461 9.33125ZM61.3341 33.0936C55.6651 33.7195 49.675 32.6642 45.0518 30.0657C40.4478 27.4779 37.2503 23.4004 36.9371 17.9274L35.0557 18.0351C35.4137 24.2899 39.0988 28.8814 44.1285 31.7084C49.1391 34.5247 55.5338 35.6299 61.5409 34.9667L61.3341 33.0936ZM36.9371 17.9274C36.8388 16.2109 37.2516 14.7597 38.1085 13.6258C38.9671 12.4898 40.3325 11.592 42.2808 11.0967L41.8165 9.27038C39.5407 9.84888 37.7711 10.9468 36.6051 12.4897C35.4375 14.0347 34.9361 15.9455 35.0557 18.0351L36.9371 17.9274ZM42.2808 11.0967C44.0623 10.6439 45.5032 11.0057 46.7197 11.881C47.9744 12.7839 49.0355 14.2697 49.9006 16.1185L51.6074 15.3198C50.6722 13.3213 49.439 11.5162 47.8203 10.3514C46.1634 9.15916 44.1517 8.67678 41.8165 9.27038L42.2808 11.0967ZM49.9006 16.1185C52.7979 22.31 49.7338 28.7998 43.9682 33.789C38.2164 38.7662 30.1154 41.9109 23.7948 41.4074L23.6452 43.2859C30.589 43.839 39.1698 40.4331 45.2013 35.2139C51.2189 30.0067 55.0396 22.6544 51.6074 15.3198L49.9006 16.1185ZM23.7948 41.4074C18.8884 41.0166 13.4875 37.7022 9.21445 34.3442C7.10055 32.683 5.30503 31.0455 4.03788 29.8229C3.40478 29.212 2.90479 28.7059 2.5642 28.3537C2.39393 28.1777 2.26359 28.0402 2.17646 27.9474C2.1329 27.9011 2.10014 27.8659 2.07861 27.8426C2.06785 27.831 2.05989 27.8224 2.05479 27.8168C2.05224 27.8141 2.0504 27.8121 2.04929 27.8108C2.04872 27.8102 2.04835 27.8098 2.04815 27.8096C2.04806 27.8095 2.04805 27.8095 2.04799 27.8094C2.04803 27.8095 2.04811 27.8096 1.35284 28.4455C0.657576 29.0814 0.657747 29.0816 0.657967 29.0818C0.658096 29.082 0.658359 29.0823 0.658624 29.0825C0.659155 29.0831 0.659874 29.0839 0.660767 29.0849C0.662559 29.0868 0.665073 29.0896 0.668312 29.0931C0.674779 29.1001 0.684128 29.1102 0.696305 29.1234C0.720652 29.1497 0.756309 29.188 0.802853 29.2375C0.895947 29.3367 1.03264 29.4808 1.20963 29.6638C1.56356 30.0298 2.07897 30.5514 2.72942 31.179C4.02938 32.4333 5.87356 34.1155 8.05007 35.8259C12.3578 39.2112 18.1405 42.8474 23.6452 43.2859L23.7948 41.4074ZM1.13911 29.3631L9.60167 31.3341L10.0291 29.4988L1.56658 27.5278L1.13911 29.3631ZM0.463653 28.7571L3.48155 37.3679L5.25994 36.7446L2.24204 28.1338L0.463653 28.7571Z" fill="#6C5FBC"/>
</svg>
